<?xml version="1.0" encoding="utf-8"?>
<!-- Generator: Adobe Illustrator 16.0.0, SVG Export Plug-In . SVG Version: 6.00 Build 0)  -->
<!DOCTYPE svg PUBLIC "-//W3C//DTD SVG 1.1//EN" "http://www.w3.org/Graphics/SVG/1.1/DTD/svg11.dtd">
<svg version="1.1" xmlns="http://www.w3.org/2000/svg" xmlns:xlink="http://www.w3.org/1999/xlink" x="0px" y="0px" width="112px"
	 height="122.636px" viewBox="0 0 112 122.636" enable-background="new 0 0 112 122.636" xml:space="preserve">
<g id="Layer_1">
	
		<line fill="none" stroke="#000000" stroke-width="1.07" stroke-linejoin="round" stroke-miterlimit="10" x1="170.833" y1="368.505" x2="169.923" y2="369.765"/>
	<polygon points="170.833,367.376 169.923,369.765 170.833,369.025 	"/>
	<polygon fill="none" stroke="#000000" stroke-width="1.07" stroke-linejoin="round" stroke-miterlimit="10" points="
		170.833,367.376 169.923,369.765 170.833,369.025 	"/>
	
		<line fill="none" stroke="#FFFFFF" stroke-width="0.38" stroke-linejoin="round" stroke-miterlimit="10" x1="85.942" y1="103.246" x2="89.542" y2="103.246"/>
</g>
<g id="Layer_2">
	<polygon fill="#3175A9" points="102.663,33.332 103.778,86.573 58.229,114.16 11.563,88.506 10.446,35.265 55.995,7.677 	"/>
	<polygon fill="none" stroke="#FFFFFF" stroke-width="1.0154" stroke-miterlimit="10" points="100.192,34.87 101.247,85.142 
		58.169,111.19 14.032,86.967 12.978,36.697 56.056,10.647 	"/>
	<g>
		<defs>
			<polygon id="SVGID_1_" points="99.503,35.245 100.542,84.793 58.153,110.467 14.722,86.593 13.685,37.045 56.073,11.371 			"/>
		</defs>
		<clipPath id="SVGID_2_">
			<use xlink:href="#SVGID_1_"  overflow="visible"/>
		</clipPath>
		
			<polyline clip-path="url(#SVGID_2_)" fill="none" stroke="#FFFFFF" stroke-width="1.07" stroke-linecap="round" stroke-linejoin="round" stroke-miterlimit="10" points="
			45.794,161.918 45.794,161.249 45.794,159.249 45.794,157.249 45.794,155.249 45.794,153.258 45.794,151.258 45.794,149.258 
			45.794,147.258 45.794,145.258 45.794,143.269 45.794,141.269 45.794,139.269 45.794,137.269 45.794,135.269 45.794,133.269 
			45.794,131.279 45.794,129.279 45.794,127.279 45.794,125.279 45.794,123.279 45.794,121.279 45.794,119.289 45.794,117.289 
			45.794,115.289 45.794,113.289 45.794,111.289 45.794,109.289 45.794,107.299 45.794,105.299 45.794,103.299 45.794,101.299 
			45.794,99.299 45.794,97.299 45.794,95.309 45.794,93.309 45.794,91.309 45.794,89.309 45.794,87.309 45.794,85.309 
			45.794,83.319 45.794,81.319 45.794,79.319 45.794,77.319 45.794,75.319 45.794,73.319 45.794,71.329 45.794,69.329 
			45.794,67.329 45.794,65.329 45.794,63.329 45.794,61.338 45.794,59.338 45.794,57.338 45.794,55.338 45.794,53.338 
			45.794,51.338 45.794,49.349 45.794,47.349 45.794,45.349 45.794,43.349 45.794,41.349 45.794,39.349 45.794,37.359 
			45.794,35.359 45.794,33.359 45.794,31.359 45.794,29.359 45.794,27.359 45.794,25.369 45.794,23.369 45.794,21.369 
			45.794,19.369 45.794,17.369 45.794,15.369 45.794,13.378 45.794,11.378 45.794,9.378 45.794,7.378 45.794,5.378 45.794,3.378 
			45.794,1.389 45.794,-0.611 45.794,-1.292 		"/>
		
			<polyline clip-path="url(#SVGID_2_)" fill="none" stroke="#FFFFFF" stroke-width="1.07" stroke-linecap="round" stroke-linejoin="round" stroke-miterlimit="10" points="
			95.073,161.918 95.073,161.249 95.073,159.249 95.073,157.249 95.073,155.249 95.073,153.258 95.073,151.258 95.073,149.258 
			95.073,147.258 95.073,145.258 95.073,143.269 95.073,141.269 95.073,139.269 95.073,137.269 95.073,135.269 95.073,133.269 
			95.073,131.279 95.073,129.279 95.073,127.279 95.073,125.279 95.073,123.279 95.073,121.279 95.073,119.289 95.073,117.289 
			95.073,115.289 95.073,113.289 95.073,111.289 95.073,109.289 95.073,107.299 95.073,105.299 95.073,103.299 95.073,101.299 
			95.073,99.299 95.073,97.299 95.073,95.309 95.073,93.309 95.073,91.309 95.073,89.309 95.073,87.309 95.073,85.309 
			95.073,83.319 95.073,81.319 95.073,79.319 95.073,77.319 95.073,75.319 95.073,73.319 95.073,71.329 95.073,69.329 
			95.073,67.329 95.073,65.329 95.073,63.329 95.073,61.338 95.073,59.338 95.073,57.338 95.073,55.338 95.073,53.338 
			95.073,51.338 95.073,49.349 95.073,47.349 95.073,45.349 95.073,43.349 95.073,41.349 95.073,39.349 95.073,37.359 
			95.073,35.359 95.073,33.359 95.073,31.359 95.073,29.359 95.073,27.359 95.073,25.369 95.073,23.369 95.073,21.369 
			95.073,19.369 95.073,17.369 95.073,15.369 95.073,13.378 95.073,11.378 95.073,9.378 95.073,7.378 95.073,5.378 95.073,3.378 
			95.073,1.389 95.073,-0.611 95.073,-1.292 		"/>
		<polygon clip-path="url(#SVGID_2_)" fill="#E9F900" points="-86.655,196.748 -86.655,196.748 -86.655,186.447 -86.655,176.14 
			-86.655,165.839 -86.655,155.538 -86.655,145.229 -86.655,134.929 -86.655,124.629 -86.655,114.319 -86.655,104.019 
			-86.655,93.708 -86.655,83.409 -86.655,73.109 -86.655,62.798 -86.655,52.499 -86.655,42.199 -86.655,31.889 -86.655,21.588 
			-86.655,11.279 -76.386,11.279 -66.126,11.279 -55.856,11.279 -45.587,11.279 -35.327,11.279 -25.058,11.279 -14.786,11.279 
			-4.517,11.279 5.743,11.279 16.013,11.279 26.282,11.279 36.554,11.279 46.823,11.279 57.083,11.279 67.353,11.279 77.624,11.279 
			87.884,11.279 98.153,11.279 108.423,11.279 118.692,11.279 128.954,11.279 139.233,11.279 139.233,21.588 139.233,31.889 
			139.233,42.199 139.233,52.499 139.233,62.798 139.233,73.109 139.233,83.409 139.233,93.708 139.233,104.019 139.233,114.319 
			139.233,124.629 139.233,134.929 139.233,145.229 139.233,155.538 139.233,165.839 139.233,176.14 139.233,186.447 
			139.233,196.748 128.954,196.748 118.692,196.748 108.423,196.748 98.153,196.748 87.884,196.748 77.624,196.748 67.353,196.748 
			57.083,196.748 46.823,196.748 36.554,196.748 26.282,196.748 16.013,196.748 5.743,196.748 -4.517,196.748 -14.786,196.748 
			-25.058,196.748 -35.327,196.748 -45.587,196.748 -55.856,196.748 -66.126,196.748 -76.386,196.748 		"/>
		<polygon clip-path="url(#SVGID_2_)" fill="#F3FC00" points="-86.655,194.988 -86.655,186.447 -86.655,176.14 -86.655,165.839 
			-86.655,155.538 -86.655,145.229 -86.655,134.929 -86.655,124.629 -86.655,117.719 -84.036,114.319 -86.655,112.649 
			-86.655,104.019 -86.655,93.708 -86.655,83.409 -86.655,73.109 -86.655,62.798 -86.655,52.499 -86.655,42.199 -86.655,31.889 
			-86.655,21.588 -86.655,16.659 -76.386,14.708 -66.126,17.769 -55.856,13.758 -45.587,15.149 -35.327,15.699 -25.058,14.359 
			-14.786,16.699 -4.517,12.338 0.093,21.588 5.634,31.889 -4.517,42.168 -4.917,42.199 -14.786,44.298 -25.058,52.159 
			-25.737,52.499 -29.747,62.798 -35.327,69.199 -45.587,72.298 -46.577,73.109 -45.587,78.718 -44.767,83.409 -42.397,93.708 
			-42.106,104.019 -45.587,113.639 -55.856,112.029 -66.126,108.899 -71.526,114.319 -66.126,120.458 -55.856,119.249 
			-45.587,114.529 -35.327,123.349 -34.138,124.629 -35.327,125.619 -37.407,134.929 -43.388,145.229 -45.587,148.389 
			-55.856,153.749 -58.267,155.538 -57.628,165.839 -55.856,175.718 -55.356,176.14 -55.856,176.649 -58.048,186.447 
			-55.856,193.447 -45.587,191.768 -35.327,192.588 -28.606,186.447 -31.946,176.14 -25.058,173.738 -14.786,166.458 
			-14.167,165.839 -5.558,155.538 -6.388,145.229 -11.407,134.929 -14.786,125.879 -15.327,124.629 -14.786,122.739 -4.517,114.569 
			-3.978,114.319 -4.517,114.049 -13.606,104.019 -4.517,102.129 5.743,97.949 12.772,93.708 16.013,91.149 22.093,93.708 
			26.282,97.919 33.224,104.019 36.554,105.079 46.823,112.519 48.493,114.319 55.243,124.629 57.083,127.699 67.353,130.619 
			71.573,124.629 73.853,114.319 67.353,105.849 63.163,104.019 63.692,93.708 67.353,90.309 77.624,88.149 87.884,85.619 
			98.153,84.699 108.423,92.109 110.683,93.708 117.063,104.019 108.423,106.909 104.413,114.319 99.544,124.629 102.644,134.929 
			99.974,145.229 98.153,149.678 96.374,155.538 98.153,161.438 108.423,162.338 113.753,155.538 118.692,151.458 123.272,145.229 
			128.954,139.979 133.173,145.229 139.233,149.069 139.233,155.538 139.233,165.839 139.233,176.14 139.233,186.447 
			139.233,196.748 128.954,196.748 118.692,196.748 114.894,196.748 118.103,186.447 108.423,178.8 105.862,176.14 98.153,166.73 
			91.624,176.14 91.813,186.447 89.964,196.748 87.884,196.748 77.624,196.748 67.353,196.748 57.083,196.748 46.823,196.748 
			36.554,196.748 26.282,196.748 16.013,196.748 5.743,196.748 -4.517,196.748 -14.786,196.748 -25.058,196.748 -35.327,196.748 
			-45.587,196.748 -55.856,196.748 -63.536,196.748 -66.126,196.328 -68.456,196.748 -76.386,196.748 -79.036,196.748 		"/>
		<polygon clip-path="url(#SVGID_2_)" fill="#FCFE00" points="-86.655,194.787 -86.655,186.447 -86.655,176.14 -86.655,165.839 
			-86.655,155.538 -86.655,145.229 -86.655,134.929 -86.655,124.629 -86.655,119.039 -83.006,114.319 -86.655,111.989 
			-86.655,104.019 -86.655,93.708 -86.655,83.409 -86.655,73.579 -86.575,73.109 -86.655,73.069 -86.655,62.798 -86.655,52.499 
			-86.655,42.199 -86.655,31.889 -86.655,21.588 -86.655,16.849 -76.386,14.909 -66.126,17.958 -55.856,13.958 -45.587,15.338 
			-35.327,15.899 -25.058,14.548 -14.786,16.889 -4.517,12.529 -0.007,21.588 5.423,31.889 -4.517,41.958 -8.497,42.199 
			-14.786,43.539 -25.058,51.789 -26.478,52.499 -30.366,62.798 -35.327,68.479 -45.587,71.708 -47.327,73.109 -45.587,82.909 
			-45.497,83.409 -44.487,93.708 -44.388,104.019 -45.587,107.349 -55.856,111.679 -66.126,108.239 -72.175,114.319 
			-66.126,121.199 -55.856,119.989 -45.587,116.469 -35.987,124.629 -37.728,134.929 -43.888,145.229 -45.587,147.668 
			-55.856,153.149 -59.077,155.538 -57.888,165.839 -56.058,176.14 -58.417,186.447 -55.856,194.648 -45.587,192.328 
			-35.327,193.328 -27.808,186.447 -30.378,176.14 -25.058,174.287 -14.786,167.658 -12.978,165.839 -4.638,155.538 -5.718,145.229 
			-9.837,134.929 -13.026,124.629 -4.517,116.859 1.042,114.319 -4.517,111.529 -11.327,104.019 -4.517,102.599 5.743,98.949 
			14.452,93.708 16.013,92.469 18.952,93.708 26.282,101.069 29.644,104.019 36.554,106.219 46.823,113.449 47.634,114.319 
			54.532,124.629 57.083,128.899 67.353,131.249 72.013,124.629 73.942,114.319 67.353,105.719 63.442,104.019 64.022,93.708 
			67.353,90.619 77.624,88.519 87.884,86.139 98.153,85.208 108.423,93.159 109.204,93.708 116.144,104.019 108.423,106.599 
			104.243,114.319 99.173,124.629 101.974,134.929 99.003,145.229 98.153,147.299 95.653,155.538 98.153,163.829 108.423,164.63 
			115.544,155.538 118.692,152.938 124.362,145.229 128.954,140.989 132.362,145.229 139.233,149.588 139.233,155.538 
			139.233,165.839 139.233,176.14 139.233,186.447 139.233,196.748 128.954,196.748 118.692,196.748 115.753,196.748 
			118.624,186.447 108.423,178.39 106.263,176.14 98.153,166.249 91.294,176.14 91.483,186.447 89.714,196.748 87.884,196.748 
			77.624,196.748 67.353,196.748 57.083,196.748 46.823,196.748 36.554,196.748 26.282,196.748 16.013,196.748 5.743,196.748 
			-4.517,196.748 -14.786,196.748 -25.058,196.748 -35.327,196.748 -45.587,196.748 -55.856,196.748 -60.756,196.748 
			-66.126,195.867 -70.956,196.748 -76.386,196.748 -78.196,196.748 		"/>
		<polygon clip-path="url(#SVGID_2_)" fill="#DFF700" points="-86.655,16.458 -86.655,11.279 -76.386,11.279 -66.126,11.279 
			-55.856,11.279 -45.587,11.279 -35.327,11.279 -25.058,11.279 -14.786,11.279 -4.517,11.279 5.743,11.279 16.013,11.279 
			26.282,11.279 36.554,11.279 46.823,11.279 57.083,11.279 67.353,11.279 77.624,11.279 87.884,11.279 98.153,11.279 
			108.423,11.279 118.692,11.279 128.954,11.279 139.233,11.279 139.233,20.869 137.362,21.588 139.233,27.189 139.233,31.889 
			139.233,32.939 128.954,39.508 125.384,42.199 122.833,52.499 123.493,62.798 126.103,73.109 128.954,79.249 129.683,83.409 
			139.233,89.589 139.233,93.708 139.233,104.019 139.233,110.969 128.954,111.689 124.544,114.319 128.954,117.559 
			131.464,124.629 139.233,132.859 139.233,134.929 139.233,145.229 139.233,148.559 133.983,145.229 128.954,138.979 
			122.183,145.229 118.692,149.979 111.964,155.538 108.423,160.059 98.153,159.038 97.103,155.538 98.153,152.059 100.942,145.229 
			103.304,134.929 99.913,124.629 104.573,114.319 108.423,107.219 117.993,104.019 112.153,93.708 108.423,91.059 98.153,84.199 
			87.884,85.089 77.624,87.779 67.353,89.999 63.353,93.708 62.884,104.019 67.353,105.969 73.763,114.319 71.134,124.629 
			67.353,129.989 57.083,126.499 55.964,124.629 49.362,114.319 46.823,111.579 36.644,104.019 36.554,103.659 26.282,94.779 
			25.224,93.708 16.013,89.819 11.103,93.708 5.743,96.939 -4.517,101.649 -14.786,103.789 -16.798,104.019 -14.786,110.069 
			-11.958,114.319 -14.786,116.449 -17.116,124.629 -14.786,130.079 -12.978,134.929 -7.067,145.229 -6.487,155.538 -14.786,165.31 
			-15.138,165.839 -25.058,173.188 -33.507,176.14 -29.417,186.447 -35.327,191.848 -45.587,191.218 -55.856,192.248 
			-57.667,186.447 -55.856,178.329 -53.687,176.14 -55.856,174.328 -57.378,165.839 -57.458,155.538 -55.856,154.348 
			-45.587,149.108 -42.888,145.229 -37.097,134.929 -35.327,127.019 -32.468,124.629 -35.327,121.549 -43.728,114.319 
			-39.827,104.019 -40.308,93.708 -44.026,83.409 -45.587,74.519 -45.837,73.109 -45.587,72.899 -35.327,69.918 -29.116,62.798 
			-25.058,52.609 -24.978,52.499 -14.786,45.059 -5.378,52.499 -4.517,53.269 -3.036,52.499 -4.048,42.199 5.743,32.159 
			6.013,31.889 5.743,31.809 0.183,21.588 -4.517,12.139 -14.786,16.499 -25.058,14.159 -35.327,15.508 -45.587,14.958 
			-55.856,13.569 -66.126,17.569 -76.386,14.519 		"/>
		<polygon clip-path="url(#SVGID_2_)" fill="#D4F400" points="-86.655,16.269 -86.655,11.279 -76.386,11.279 -66.126,11.279 
			-55.856,11.279 -45.587,11.279 -35.327,11.279 -25.058,11.279 -14.786,11.279 -4.517,11.279 5.743,11.279 16.013,11.279 
			26.282,11.279 36.554,11.279 46.823,11.279 57.083,11.279 67.353,11.279 77.624,11.279 87.884,11.279 98.153,11.279 
			108.423,11.279 118.692,11.279 128.954,11.279 139.233,11.279 139.233,20.048 135.272,21.588 138.593,31.889 128.954,37.929 
			123.294,42.199 119.253,52.499 122.304,62.798 124.423,73.109 128.954,82.849 129.054,83.409 139.233,89.989 139.233,93.708 
			139.233,104.019 139.233,110.579 128.954,110.899 123.224,114.319 128.954,118.529 131.124,124.629 139.233,133.229 
			139.233,134.929 139.233,145.229 139.233,148.049 134.794,145.229 128.954,137.969 121.093,145.229 118.692,148.499 
			110.173,155.538 108.423,157.768 98.153,156.649 97.823,155.538 98.153,154.428 101.913,145.229 103.974,134.929 100.282,124.629 
			104.743,114.319 108.423,107.529 118.692,104.719 118.974,104.019 118.692,103.309 113.624,93.708 108.423,90.019 98.153,83.699 
			87.884,84.569 77.624,87.409 67.353,89.689 63.022,93.708 62.603,104.019 67.353,106.089 73.663,114.319 70.683,124.629 
			67.353,129.359 57.083,125.299 56.683,124.629 50.224,114.319 46.823,110.649 37.894,104.019 36.554,98.629 30.433,93.708 
			26.282,92.669 16.013,88.499 9.433,93.708 5.743,95.929 -4.517,101.179 -14.786,103.329 -20.978,104.019 -15.757,114.319 
			-18.907,124.629 -14.786,134.269 -14.536,134.929 -7.747,145.229 -7.417,155.538 -14.786,164.22 -15.878,165.839 -25.058,172.648 
			-35.077,176.14 -30.228,186.447 -35.327,191.107 -45.587,190.658 -55.856,191.048 -57.298,186.447 -55.856,179.999 
			-52.017,176.14 -55.856,172.928 -57.128,165.839 -56.647,155.538 -55.856,154.948 -45.587,149.829 -42.388,145.229 
			-36.786,134.929 -35.327,128.409 -30.798,124.629 -35.327,119.759 -41.638,114.319 -37.548,104.019 -38.218,93.708 
			-43.286,83.409 -43.927,73.109 -35.327,70.639 -28.487,62.798 -25.058,54.189 -23.937,52.499 -14.786,45.819 -6.347,52.499 
			-4.517,54.139 -1.356,52.499 -3.517,42.199 5.743,32.699 6.554,31.889 5.743,31.628 0.282,21.588 -4.517,11.949 -14.786,16.309 
			-25.058,13.968 -35.327,15.319 -45.587,14.758 -55.856,13.378 -66.126,17.378 -76.386,14.329 		"/>
		<polygon clip-path="url(#SVGID_2_)" fill="#CAF200" points="-86.655,16.079 -86.655,11.279 -76.386,11.279 -66.126,11.279 
			-55.856,11.279 -45.587,11.279 -35.327,11.279 -25.058,11.279 -14.786,11.279 -4.517,11.279 5.743,11.279 16.013,11.279 
			26.282,11.279 36.554,11.279 46.823,11.279 57.083,11.279 67.353,11.279 77.624,11.279 87.884,11.279 98.153,11.279 
			108.423,11.279 118.692,11.279 128.954,11.279 139.233,11.279 139.233,19.239 133.183,21.588 136.083,31.889 128.954,36.359 
			121.204,42.199 118.692,48.258 116.573,52.499 118.692,55.529 121.103,62.798 122.753,73.109 128.233,83.409 128.954,84.469 
			139.233,90.399 139.233,93.708 139.233,104.019 139.233,110.189 128.954,110.119 121.903,114.319 128.954,119.499 
			130.782,124.629 139.233,133.589 139.233,134.929 139.233,145.229 139.233,147.528 135.603,145.229 128.954,136.969 
			120.003,145.229 118.692,147.018 108.423,155.489 102.884,145.229 104.634,134.929 100.663,124.629 104.913,114.319 
			108.423,107.839 118.692,107.519 120.112,104.019 118.692,100.519 115.103,93.708 108.423,88.969 98.933,83.409 98.153,82.839 
			95.442,83.409 87.884,84.039 77.624,87.039 67.353,89.379 62.692,93.708 62.323,104.019 67.353,106.208 73.573,114.319 
			70.243,124.629 67.353,128.729 57.724,124.629 57.083,124.019 51.083,114.319 46.823,109.719 39.144,104.019 36.563,93.708 
			36.554,93.659 26.282,91.099 16.013,87.179 7.763,93.708 5.743,94.929 -4.517,100.699 -14.786,102.859 -25.058,103.999 
			-35.327,103.419 -36.128,93.708 -42.548,83.409 -41.427,73.109 -35.327,71.359 -27.866,62.798 -25.058,55.758 -22.888,52.499 
			-14.786,46.588 -7.308,52.499 -4.517,55.008 0.313,52.499 -2.978,42.199 5.743,33.249 7.103,31.889 5.743,31.449 0.372,21.588 
			-4.517,11.758 -14.786,16.109 -25.058,13.779 -35.327,15.119 -45.587,14.569 -55.856,13.179 -66.126,17.189 -76.386,14.128 		"/>
		<polygon clip-path="url(#SVGID_2_)" fill="#C0EF00" points="-86.655,15.878 -86.655,11.279 -76.386,11.279 -66.126,11.279 
			-55.856,11.279 -45.587,11.279 -35.327,11.279 -25.058,11.279 -14.786,11.279 -4.517,11.279 5.743,11.279 16.013,11.279 
			26.282,11.279 36.554,11.279 46.823,11.279 57.083,11.279 67.353,11.279 77.624,11.279 87.884,11.279 98.153,11.279 
			108.423,11.279 118.692,11.279 128.954,11.279 139.233,11.279 139.233,18.429 131.093,21.588 133.583,31.889 128.954,34.789 
			119.112,42.199 118.692,43.229 114.073,52.499 118.692,59.119 119.913,62.798 121.083,73.109 127.362,83.409 128.954,85.729 
			139.233,90.809 139.233,93.708 139.233,104.019 139.233,109.799 128.954,109.329 121.253,104.019 118.692,97.719 116.573,93.708 
			108.423,87.919 100.724,83.409 98.153,81.509 89.173,83.409 87.884,83.519 77.624,86.669 67.353,89.069 62.353,93.708 
			62.044,104.019 67.353,106.329 73.483,114.319 69.804,124.629 67.353,128.099 59.192,124.629 57.083,122.619 51.954,114.319 
			46.823,108.789 40.403,104.019 37.323,93.708 36.554,91.569 26.282,89.529 16.013,85.849 6.093,93.708 5.743,93.919 
			-4.517,100.229 -14.786,102.399 -25.058,103.099 -34.757,93.708 -35.327,93.039 -41.817,83.409 -38.917,73.109 -35.327,72.079 
			-27.237,62.798 -25.058,57.329 -21.847,52.499 -14.786,47.349 -8.267,52.499 -4.517,55.878 1.983,52.499 -2.446,42.199 
			5.743,33.798 7.644,31.889 5.743,31.279 0.474,21.588 -4.517,11.559 -14.786,15.918 -25.058,13.579 -35.327,14.929 
			-45.587,14.378 -55.856,12.989 -66.126,16.989 -76.386,13.939 		"/>
		<polygon clip-path="url(#SVGID_2_)" fill="#B5EC00" points="-86.655,15.689 -86.655,11.279 -76.386,11.279 -66.126,11.279 
			-55.856,11.279 -45.587,11.279 -35.327,11.279 -25.058,11.279 -14.786,11.279 -4.517,11.279 5.743,11.279 16.013,11.279 
			26.282,11.279 36.554,11.279 46.823,11.279 57.083,11.279 67.353,11.279 77.624,11.279 87.884,11.279 98.153,11.279 
			108.423,11.279 118.692,11.279 128.954,11.279 139.233,11.279 139.233,17.619 129.003,21.588 131.073,31.889 128.954,33.218 
			118.692,40.769 117.362,42.199 111.563,52.499 118.692,62.718 118.714,62.798 119.413,73.109 126.503,83.409 128.954,86.989 
			139.233,91.208 139.233,93.708 139.233,104.019 139.233,109.419 128.954,108.539 122.394,104.019 118.692,94.929 118.054,93.708 
			108.423,86.869 102.513,83.409 98.153,80.189 87.884,82.229 86.933,83.409 77.624,86.299 67.353,88.759 62.022,93.708 
			61.772,104.019 67.353,106.449 73.384,114.319 69.353,124.629 67.353,127.469 60.673,124.629 57.083,121.219 52.813,114.319 
			46.823,107.859 41.653,104.019 38.083,93.708 36.554,89.469 26.282,87.958 16.013,84.529 5.743,91.708 5.144,93.708 
			-4.517,99.749 -14.786,101.929 -25.058,102.199 -33.827,93.708 -35.327,91.949 -41.077,83.409 -36.407,73.109 -35.327,72.789 
			-26.606,62.798 -25.058,58.899 -20.798,52.499 -14.786,48.109 -9.237,52.499 -4.517,56.739 3.653,52.499 -1.917,42.199 
			5.743,34.338 8.192,31.889 5.743,31.099 0.573,21.588 -4.517,11.369 -14.786,15.729 -25.058,13.389 -35.327,14.739 
			-45.587,14.179 -55.856,12.789 -66.126,16.798 -76.386,13.749 		"/>
		<polygon clip-path="url(#SVGID_2_)" fill="#AAEA00" points="-35.327,90.849 -40.337,83.409 -35.327,73.899 -34.917,73.109 
			-25.987,62.798 -25.058,60.468 -19.757,52.499 -14.786,48.869 -10.196,52.499 -4.517,57.609 5.323,52.499 -1.378,42.199 
			5.743,34.889 8.733,31.889 5.743,30.918 0.663,21.588 -4.417,11.279 5.743,11.279 16.013,11.279 26.282,11.279 36.554,11.279 
			46.823,11.279 57.083,11.279 67.353,11.279 77.624,11.279 87.884,11.279 98.153,11.279 108.423,11.279 118.692,11.279 
			128.954,11.279 139.233,11.279 139.233,16.809 128.954,20.609 125.903,21.588 128.563,31.889 118.692,38.968 115.692,42.199 
			109.063,52.499 110.532,62.798 117.403,73.109 118.692,73.789 125.634,83.409 128.954,88.249 139.233,91.619 139.233,93.708 
			139.233,104.019 139.233,109.029 128.954,107.759 123.532,104.019 119.874,93.708 118.692,93.039 108.423,85.819 104.304,83.409 
			98.153,78.859 87.884,80.749 85.743,83.409 77.624,85.929 67.353,88.449 61.683,93.708 61.493,104.019 67.353,106.579 
			73.294,114.319 68.913,124.629 67.353,126.839 62.144,124.629 57.083,119.829 53.683,114.319 46.823,106.919 42.913,104.019 
			38.843,93.708 36.554,87.379 26.282,86.379 16.804,83.409 16.013,83.199 15.362,83.409 5.743,89.199 4.384,93.708 -4.517,99.279 
			-14.786,101.458 -25.058,101.299 -32.897,93.708 		"/>
		<polygon clip-path="url(#SVGID_2_)" fill="#9FE700" points="-35.327,89.759 -39.606,83.409 -35.327,75.298 -34.208,73.109 
			-25.356,62.798 -25.058,62.048 -18.708,52.499 -14.786,49.639 -11.167,52.499 -4.517,58.479 5.743,54.208 6.923,52.499 
			5.743,51.909 -0.847,42.199 5.743,35.439 9.282,31.889 5.743,30.739 0.763,21.588 -4.218,11.279 5.743,11.279 16.013,11.279 
			26.282,11.279 36.554,11.279 46.823,11.279 57.083,11.279 67.353,11.279 77.624,11.279 87.884,11.279 98.153,11.279 
			108.423,11.279 118.692,11.279 128.954,11.279 139.233,11.279 139.233,15.999 128.954,19.599 122.763,21.588 126.054,31.889 
			118.692,37.168 114.022,42.199 108.423,50.619 107.323,52.499 103.743,62.798 108.423,64.889 115.124,73.109 118.692,74.979 
			124.772,83.409 128.954,89.499 139.233,92.019 139.233,93.708 139.233,104.019 139.233,108.639 128.954,106.969 124.673,104.019 
			121.964,93.708 118.692,91.839 108.423,84.769 106.093,83.409 98.153,77.539 87.884,79.269 84.554,83.409 77.624,85.559 
			67.353,88.139 61.353,93.708 61.214,104.019 67.353,106.699 73.204,114.319 68.474,124.629 67.353,126.219 63.624,124.629 
			57.083,118.429 54.544,114.319 46.823,105.989 44.163,104.019 39.603,93.708 36.554,85.279 26.282,84.809 21.813,83.409 
			16.013,81.879 11.183,83.409 5.743,86.679 3.622,93.708 -4.517,98.799 -14.786,100.999 -25.058,100.399 -31.968,93.708 		"/>
		<polygon clip-path="url(#SVGID_2_)" fill="#94E400" points="-35.327,88.669 -38.866,83.409 -35.327,76.689 -33.487,73.109 
			-25.058,63.239 -24.638,62.798 -17.667,52.499 -14.786,50.399 -12.128,52.499 -4.517,59.349 5.743,56.499 8.483,52.499 
			5.743,51.128 -0.317,42.199 5.743,35.979 9.823,31.889 5.743,30.569 0.862,21.588 -4.026,11.279 5.743,11.279 16.013,11.279 
			26.282,11.279 36.554,11.279 46.823,11.279 57.083,11.279 67.353,11.279 77.624,11.279 87.884,11.279 98.153,11.279 
			108.423,11.279 118.692,11.279 128.954,11.279 139.233,11.279 139.233,15.179 128.954,18.588 119.634,21.588 123.554,31.889 
			118.692,35.378 112.353,42.199 108.423,48.099 105.843,52.499 98.153,62.588 97.974,62.798 98.153,63.258 108.423,67.689 
			112.843,73.109 118.692,76.179 123.903,83.409 118.692,90.639 108.423,83.729 107.884,83.409 98.153,76.218 87.884,77.789 
			83.353,83.409 77.624,85.189 67.353,87.829 61.013,93.708 60.933,104.019 67.353,106.819 73.103,114.319 68.032,124.629 
			67.353,125.589 65.093,124.629 57.083,117.029 55.413,114.319 46.823,105.059 45.413,104.019 40.362,93.708 36.603,83.409 
			36.554,83.269 26.282,83.109 16.013,80.548 7.003,83.409 5.743,84.169 2.862,93.708 -4.517,98.329 -14.786,100.529 
			-25.058,99.499 -31.036,93.708 		"/>
		<polygon clip-path="url(#SVGID_2_)" fill="#FFF700" points="-55.856,196.748 -57.968,196.748 -55.856,195.838 -45.587,192.889 
			-35.327,194.068 -26.997,186.447 -28.808,176.14 -25.058,174.828 -14.786,168.859 -11.776,165.839 -4.517,156.838 5.743,157.399 
			16.013,156.098 16.862,155.538 16.013,154.688 5.743,150.659 -4.517,149.999 -5.036,145.229 -8.276,134.929 -10.526,124.629 
			-4.517,119.149 0.942,124.629 -1.786,134.929 5.743,142.159 11.464,134.929 7.952,124.629 6.134,114.319 5.743,114.169 
			-4.517,109.019 -9.048,104.019 -4.517,103.069 5.743,99.958 16.013,94.019 25.974,104.019 26.282,104.149 36.554,107.369 
			46.714,114.319 46.823,114.389 53.813,124.629 57.083,130.099 67.353,131.879 72.464,124.629 74.044,114.319 67.353,105.599 
			63.724,104.019 64.362,93.708 67.353,90.939 77.624,88.889 87.884,86.659 98.153,85.708 108.134,93.708 108.423,94.339 
			115.214,104.019 108.423,106.289 104.073,114.319 98.804,124.629 101.313,134.929 98.153,144.958 98.044,145.229 94.933,155.538 
			98.093,165.839 90.954,176.14 91.153,186.447 89.474,196.748 87.884,196.748 77.624,196.748 67.353,196.748 57.083,196.748 
			46.823,196.748 36.554,196.748 26.282,196.748 16.013,196.748 5.743,196.748 -4.517,196.748 -14.786,196.748 -25.058,196.748 
			-35.327,196.748 -45.587,196.748 		"/>
		<polygon clip-path="url(#SVGID_2_)" fill="#88E100" points="-35.327,87.569 -38.128,83.409 -35.327,78.088 -32.767,73.109 
			-25.058,64.079 -23.827,62.798 -16.616,52.499 -14.786,51.159 -13.087,52.499 -4.517,60.208 5.743,58.779 10.054,52.499 
			5.743,50.338 0.224,42.199 5.743,36.529 10.372,31.889 5.743,30.389 0.952,21.588 -3.837,11.279 5.743,11.279 16.013,11.279 
			26.282,11.279 36.554,11.279 46.823,11.279 57.083,11.279 67.353,11.279 77.624,11.279 87.884,11.279 98.153,11.279 
			108.423,11.279 118.692,11.279 128.954,11.279 139.233,11.279 139.233,14.369 128.954,17.588 118.692,20.609 112.843,21.588 
			118.692,25.989 121.044,31.889 118.692,33.579 110.673,42.199 108.423,45.588 104.374,52.499 98.153,60.659 96.304,62.798 
			98.153,67.449 108.423,70.479 110.563,73.109 118.692,77.378 123.044,83.409 118.692,89.439 109.683,83.409 108.423,79.008 
			98.153,74.889 87.884,76.309 82.163,83.409 77.624,84.819 67.353,87.519 60.683,93.708 60.653,104.019 67.353,106.939 
			73.013,114.319 67.583,124.629 67.353,124.958 66.573,124.629 57.083,115.629 56.272,114.319 46.823,104.129 46.673,104.019 
			41.124,93.708 37.073,83.409 36.554,81.939 26.282,80.309 16.013,79.229 5.743,82.379 4.772,83.409 2.103,93.708 -4.517,97.849 
			-14.786,100.069 -25.058,98.609 -30.106,93.708 		"/>
		<polygon clip-path="url(#SVGID_2_)" fill="#FFED00" points="-45.587,196.748 -55.458,196.748 -45.587,193.447 -35.327,194.808 
			-26.187,186.447 -27.247,176.14 -25.058,175.378 -14.786,170.061 -10.587,165.839 -4.517,158.319 5.743,158.139 16.013,157.299 
			18.653,155.538 16.013,152.889 5.743,148.729 -3.308,145.229 -4.517,143.708 -6.708,134.929 -8.017,124.629 -4.517,121.429 
			-1.337,124.629 -2.927,134.929 5.743,143.259 12.333,134.929 8.993,124.629 12.403,114.319 5.743,111.649 -4.517,106.499 
			-6.767,104.019 -4.517,103.549 5.743,100.958 16.013,99.049 20.964,104.019 26.282,106.239 36.554,108.509 45.044,114.319 
			46.823,115.429 53.103,124.629 57.083,131.289 67.353,132.509 72.903,124.629 74.134,114.319 67.353,105.479 63.993,104.019 
			64.692,93.708 67.353,91.249 77.624,89.259 87.884,87.189 98.153,86.208 107.503,93.708 108.423,95.659 114.282,104.019 
			108.423,105.979 103.903,114.319 98.423,124.629 100.644,134.929 98.153,142.849 97.192,145.229 94.214,155.538 97.692,165.839 
			90.612,176.14 90.823,186.447 89.224,196.748 87.884,196.748 77.624,196.748 67.353,196.748 57.083,196.748 46.823,196.748 
			36.554,196.748 26.282,196.748 16.013,196.748 5.743,196.748 -4.517,196.748 -14.786,196.748 -25.058,196.748 -35.327,196.748 		
			"/>
		<polygon clip-path="url(#SVGID_2_)" fill="#7EDE00" points="-35.327,86.479 -37.397,83.409 -35.327,79.489 -32.058,73.109 
			-25.058,64.918 -23.017,62.798 -15.577,52.499 -14.786,51.918 -14.058,52.499 -4.517,61.079 5.743,61.069 11.622,52.499 
			5.743,49.548 0.753,42.199 5.743,37.079 10.913,31.889 5.743,30.208 1.054,21.588 -3.638,11.279 5.743,11.279 16.013,11.279 
			26.282,11.279 36.554,11.279 46.823,11.279 57.083,11.279 67.353,11.279 77.624,11.279 87.884,11.279 98.153,11.279 
			108.423,11.279 118.692,11.279 128.954,11.279 139.233,11.279 139.233,13.559 128.954,16.579 118.692,19.208 108.423,20.999 
			107.243,21.588 108.423,22.668 118.532,31.889 109.003,42.199 108.423,43.069 102.894,52.499 98.153,58.718 94.634,62.798 
			98.153,71.649 106.884,73.109 98.153,73.569 87.884,74.829 80.974,83.409 77.624,84.449 67.353,87.208 60.353,93.708 
			60.374,104.019 67.353,107.059 72.923,114.319 67.353,124.539 57.093,114.319 57.083,114.269 47.532,104.019 46.823,102.789 
			41.884,93.708 37.544,83.409 36.554,80.619 26.282,77.508 16.013,77.909 5.743,80.899 3.384,83.409 1.343,93.708 -4.517,97.379 
			-14.786,99.599 -25.058,97.708 -29.187,93.708 		"/>
		<polygon clip-path="url(#SVGID_2_)" fill="#FFE300" points="-45.587,196.748 -53.776,196.748 -45.587,194.008 -35.327,195.549 
			-25.378,186.447 -25.677,176.14 -25.058,175.927 -14.786,171.25 -9.397,165.839 -4.517,159.799 5.743,158.879 16.013,158.499 
			20.442,155.538 16.013,151.098 5.743,146.788 1.702,145.229 5.743,144.348 13.192,134.929 10.042,124.629 16.013,115.029 
			17.343,114.319 26.282,108.339 36.554,109.649 43.374,114.319 46.823,116.479 52.384,124.629 57.083,132.489 67.353,133.129 
			73.343,124.629 74.224,114.319 67.353,105.359 64.272,104.019 65.032,93.708 67.353,91.559 77.624,89.629 87.884,87.708 
			98.153,86.719 106.874,93.708 108.423,96.989 113.353,104.019 108.423,105.669 103.733,114.319 98.153,124.539 97.093,124.629 
			98.153,125.539 99.983,134.929 98.153,140.739 96.333,145.229 93.493,155.538 97.294,165.839 90.272,176.14 90.503,186.447 
			88.983,196.748 87.884,196.748 77.624,196.748 67.353,196.748 57.083,196.748 46.823,196.748 36.554,196.748 26.282,196.748 
			16.013,196.748 5.743,196.748 -4.517,196.748 -14.786,196.748 -25.058,196.748 -35.327,196.748 		"/>
		<polygon clip-path="url(#SVGID_2_)" fill="#77DC00" points="-35.327,85.389 -36.657,83.409 -35.327,80.889 -31.337,73.109 
			-25.058,65.749 -22.208,62.798 -14.786,52.769 -4.517,61.949 3.724,62.798 5.743,63.359 6.353,62.798 13.183,52.499 5.743,48.769 
			1.292,42.199 5.743,37.619 11.464,31.889 5.743,30.039 1.153,21.588 -3.446,11.279 5.743,11.279 16.013,11.279 26.282,11.279 
			36.554,11.279 46.823,11.279 57.083,11.279 67.353,11.279 77.624,11.279 87.884,11.279 98.153,11.279 108.423,11.279 
			118.692,11.279 128.954,11.279 139.233,11.279 139.233,12.749 128.954,15.569 118.692,17.819 108.423,19.739 104.733,21.588 
			108.423,24.949 116.032,31.889 108.423,40.369 107.333,42.199 101.423,52.499 98.153,56.789 92.954,62.798 89.983,73.109 
			87.884,73.349 79.772,83.409 77.624,84.079 67.353,86.899 60.013,93.708 60.093,104.019 67.353,107.179 72.823,114.319 
			67.353,124.369 57.263,114.319 57.083,113.399 48.343,104.019 46.823,101.389 42.644,93.708 38.022,83.409 36.554,79.289 
			26.282,74.718 16.013,76.579 5.743,79.418 1.983,83.409 0.583,93.708 -4.517,96.899 -14.786,99.129 -25.058,96.809 
			-28.257,93.708 		"/>
		<polygon clip-path="url(#SVGID_2_)" fill="#70D900" points="-35.327,84.289 -35.917,83.409 -35.327,82.289 -30.616,73.109 
			-25.058,66.588 -21.397,62.798 -14.786,53.859 -4.536,62.798 -4.517,62.829 5.743,65.639 8.862,62.798 14.753,52.499 
			5.743,47.979 1.823,42.199 5.743,38.168 12.003,31.889 5.743,29.859 1.243,21.588 -3.257,11.279 5.743,11.279 16.013,11.279 
			26.282,11.279 36.554,11.279 46.823,11.279 57.083,11.279 67.353,11.279 77.624,11.279 87.884,11.279 98.153,11.279 
			108.423,11.279 118.692,11.279 128.954,11.279 139.233,11.279 139.233,11.939 128.954,14.569 118.692,16.418 108.423,18.479 
			102.233,21.588 108.423,27.239 113.522,31.889 108.423,37.579 105.663,42.199 99.942,52.499 98.153,54.849 91.282,62.798 
			87.884,70.109 86.663,73.109 78.583,83.409 77.624,83.708 67.353,86.589 59.683,93.708 59.823,104.019 67.353,107.299 
			72.733,114.319 67.353,124.199 57.433,114.319 57.083,112.529 49.153,104.019 46.823,99.989 43.403,93.708 38.493,83.409 
			36.554,77.968 27.343,73.109 26.282,72.139 24.163,73.109 16.013,75.258 5.743,77.939 0.593,83.409 -0.177,93.708 -4.517,96.429 
			-14.786,98.669 -25.058,95.909 -27.327,93.708 		"/>
		<polygon clip-path="url(#SVGID_2_)" fill="#FFD900" points="-45.587,196.748 -52.106,196.748 -45.587,194.568 -35.327,196.287 
			-25.058,187.248 -14.786,190.968 -6.968,186.447 -14.786,179.669 -23.378,176.14 -14.786,172.447 -8.196,165.839 -4.517,161.278 
			5.743,159.618 16.013,159.688 22.233,155.538 16.013,149.299 6.563,145.229 14.063,134.929 11.083,124.629 16.013,116.708 
			20.474,114.319 26.282,110.439 36.554,110.799 41.704,114.319 46.823,117.529 51.663,124.629 57.083,133.689 67.353,133.759 
			73.782,124.629 74.323,114.319 67.353,105.239 64.554,104.019 65.362,93.708 67.353,91.869 77.624,89.999 87.884,88.239 
			98.153,87.219 106.253,93.708 108.423,98.309 112.423,104.019 108.423,105.359 103.563,114.319 98.153,124.229 93.163,124.629 
			98.153,128.949 99.323,134.929 98.153,138.629 95.483,145.229 92.772,155.538 96.894,165.839 89.942,176.14 90.173,186.447 
			88.733,196.748 87.884,196.748 77.624,196.748 67.353,196.748 57.083,196.748 46.823,196.748 36.554,196.748 26.282,196.748 
			16.013,196.748 5.743,196.748 -4.517,196.748 -14.786,196.748 -25.058,196.748 -35.327,196.748 		"/>
		<polygon clip-path="url(#SVGID_2_)" fill="#69D600" points="-25.058,95.009 -26.397,93.708 -34.106,83.409 -29.907,73.109 
			-25.058,67.429 -20.587,62.798 -14.786,54.949 -5.786,62.798 -4.517,64.619 5.743,67.929 11.372,62.798 16.013,53.479 
			16.323,52.499 16.013,52.298 5.743,47.189 2.353,42.199 5.743,38.718 12.554,31.889 5.743,29.679 1.343,21.588 -3.067,11.279 
			5.743,11.279 16.013,11.279 26.282,11.279 36.554,11.279 46.823,11.279 57.083,11.279 67.353,11.279 77.624,11.279 87.884,11.279 
			98.153,11.279 108.423,11.279 118.692,11.279 128.954,11.279 138.413,11.279 128.954,13.559 118.692,15.019 108.423,17.218 
			99.724,21.588 108.423,29.529 111.013,31.889 108.423,34.779 103.993,42.199 98.474,52.499 98.153,52.918 89.612,62.798 
			87.884,66.519 85.183,73.109 77.624,83.029 77.413,83.409 67.353,86.279 59.343,93.708 59.544,104.019 67.353,107.429 
			72.644,114.319 67.353,124.029 57.612,114.319 57.083,111.669 49.954,104.019 46.823,98.589 44.163,93.708 38.964,83.409 
			36.554,76.649 29.853,73.109 26.282,69.849 19.153,73.109 16.013,73.929 5.743,76.458 -0.798,83.409 -0.937,93.708 -4.517,95.949 
			-14.786,98.199 		"/>
		<polygon clip-path="url(#SVGID_2_)" fill="#FFCF00" points="-25.058,196.748 -34.737,196.748 -25.058,188.568 -14.786,191.729 
			-5.647,186.447 -14.786,178.528 -20.587,176.14 -14.786,173.648 -7.007,165.839 -4.517,162.758 5.743,160.358 16.013,160.889 
			24.022,155.538 16.013,147.499 10.743,145.229 14.923,134.929 12.134,124.629 16.013,118.389 23.612,114.319 26.282,112.529 
			36.554,111.939 40.032,114.319 46.823,118.579 50.954,124.629 46.823,134.299 43.683,134.929 46.823,135.479 54.563,145.229 
			52.894,155.538 57.083,158.358 67.353,158.118 73.323,155.538 69.374,145.229 67.353,136.849 57.083,135.089 56.233,134.929 
			57.083,134.889 67.353,134.389 74.233,124.629 74.413,114.319 67.353,105.119 64.833,104.019 65.692,93.708 67.353,92.179 
			77.624,90.369 87.884,88.759 98.153,87.719 105.624,93.708 108.423,99.629 111.503,104.019 108.423,105.049 103.403,114.319 
			98.153,123.929 89.233,124.629 98.153,132.359 98.653,134.929 98.153,136.519 94.624,145.229 92.044,155.538 96.493,165.839 
			89.603,176.14 89.843,186.447 88.483,196.748 87.884,196.748 77.624,196.748 67.353,196.748 57.083,196.748 46.823,196.748 
			36.554,196.748 26.282,196.748 16.013,196.748 5.743,196.748 -4.517,196.748 -14.786,196.748 		"/>
		<polygon clip-path="url(#SVGID_2_)" fill="#FFC400" points="-25.058,196.748 -33.167,196.748 -25.058,189.898 -14.786,192.488 
			-4.517,186.818 -4.388,186.447 -4.517,186.107 -14.786,177.38 -17.798,176.14 -14.786,174.847 -5.817,165.839 -4.517,164.239 
			5.743,161.098 16.013,162.088 25.813,155.538 16.013,145.708 14.923,145.229 15.792,134.929 13.173,124.629 16.013,120.059 
			26.282,114.609 27.513,114.319 36.554,113.089 38.362,114.319 46.823,119.629 50.233,124.629 46.823,132.619 36.554,134.399 
			32.874,134.929 36.554,135.669 46.823,136.958 53.384,145.229 52.612,155.538 57.083,158.549 67.353,158.299 73.733,155.538 
			69.913,145.229 67.454,134.929 74.673,124.629 74.503,114.319 67.353,104.999 65.112,104.019 66.032,93.708 67.353,92.489 
			77.624,90.739 87.884,89.279 98.153,88.219 104.993,93.708 108.423,100.958 110.573,104.019 108.423,104.739 103.233,114.319 
			98.153,123.619 87.884,124.329 86.964,124.629 87.884,125.489 97.813,134.929 93.772,145.229 91.323,155.538 96.093,165.839 
			89.263,176.14 89.513,186.447 88.243,196.748 87.884,196.748 77.624,196.748 67.353,196.748 57.083,196.748 46.823,196.748 
			36.554,196.748 26.282,196.748 16.013,196.748 5.743,196.748 -4.517,196.748 -14.786,196.748 		"/>
		<polygon clip-path="url(#SVGID_2_)" fill="#62D400" points="5.743,46.409 2.894,42.199 5.743,39.258 13.093,31.889 5.743,29.499 
			1.442,21.588 -2.866,11.279 5.743,11.279 16.013,11.279 26.282,11.279 36.554,11.279 46.823,11.279 57.083,11.279 67.353,11.279 
			77.624,11.279 87.884,11.279 98.153,11.279 108.423,11.279 118.692,11.279 128.954,11.279 134.233,11.279 128.954,12.559 
			118.692,13.619 108.423,15.958 98.153,21.229 97.804,21.588 98.153,22.769 108.423,31.809 108.513,31.889 108.423,31.989 
			102.323,42.199 98.153,50.029 96.644,52.499 87.942,62.798 87.884,62.929 83.714,73.109 77.624,81.099 76.323,83.409 
			67.353,85.969 59.013,93.708 59.263,104.019 67.353,107.549 72.544,114.319 67.353,123.859 57.782,114.319 57.083,110.799 
			50.763,104.019 46.823,97.199 44.923,93.708 39.442,83.409 36.554,75.319 32.353,73.109 26.282,67.559 16.013,69.958 
			13.872,62.798 16.013,58.508 17.894,52.499 16.013,51.298 		"/>
		<polygon clip-path="url(#SVGID_2_)" fill="#5AD100" points="5.743,45.619 3.423,42.199 5.743,39.809 13.644,31.889 5.743,29.329 
			1.532,21.588 -2.677,11.279 5.743,11.279 16.013,11.279 26.282,11.279 36.554,11.279 46.823,11.279 57.083,11.279 67.353,11.279 
			77.624,11.279 87.884,11.279 98.153,11.279 108.423,11.279 118.692,11.279 128.954,11.279 130.054,11.279 128.954,11.548 
			118.692,12.218 108.423,14.708 98.153,20.258 96.874,21.588 98.153,25.909 104.964,31.889 100.653,42.199 98.153,46.889 
			94.714,52.499 87.884,60.588 87.022,62.798 82.233,73.109 77.624,79.159 75.233,83.409 67.353,85.659 58.673,93.708 
			58.983,104.019 67.353,107.669 72.454,114.319 67.353,123.689 57.954,114.319 57.083,109.929 51.573,104.019 46.823,95.799 
			45.683,93.708 39.913,83.409 36.554,73.999 34.862,73.109 26.282,65.279 17.243,62.798 19.452,52.499 16.013,50.289 		"/>
		<polygon clip-path="url(#SVGID_2_)" fill="#FFBA00" points="-25.058,196.748 -31.597,196.748 -25.058,191.218 -14.786,193.248 
			-4.517,189.328 -3.458,186.447 -4.517,183.818 -14.786,176.239 -15.017,176.14 -14.786,176.048 -4.616,165.839 -4.517,165.72 
			5.743,161.838 16.013,163.288 26.282,156.858 28.134,155.538 26.282,153.479 18.073,145.229 26.282,136.989 36.554,140.699 
			46.823,138.439 52.214,145.229 52.323,155.538 57.083,158.749 67.353,158.479 74.144,155.538 70.464,145.229 68.144,134.929 
			75.112,124.629 74.603,114.319 67.353,104.869 65.394,104.019 66.362,93.708 67.353,92.799 77.624,91.109 87.884,89.809 
			98.153,88.729 104.374,93.708 108.423,102.279 109.644,104.019 108.423,104.419 103.063,114.319 98.153,123.309 87.884,123.879 
			85.563,124.629 87.884,126.789 96.442,134.929 92.913,145.229 90.603,155.538 95.692,165.839 88.923,176.14 89.192,186.447 
			87.993,196.748 87.884,196.748 77.624,196.748 67.353,196.748 57.083,196.748 46.823,196.748 36.554,196.748 26.282,196.748 
			16.013,196.748 5.743,196.748 -4.517,196.748 -14.786,196.748 		"/>
		<polygon clip-path="url(#SVGID_2_)" fill="#52CE00" points="5.743,44.838 3.952,42.199 5.743,40.359 14.183,31.889 5.743,29.149 
			1.634,21.588 -2.487,11.279 5.743,11.279 16.013,11.279 26.282,11.279 36.554,11.279 46.823,11.279 57.083,11.279 67.353,11.279 
			77.624,11.279 87.884,11.279 98.153,11.279 108.423,11.279 117.044,11.279 108.423,13.449 98.153,19.289 95.954,21.588 
			98.153,29.059 101.384,31.889 98.974,42.199 98.153,43.739 92.782,52.499 87.884,58.309 86.124,62.798 80.763,73.109 
			77.624,77.229 74.144,83.409 67.353,85.339 58.343,93.708 58.704,104.019 67.353,107.789 72.362,114.319 67.353,123.519 
			58.124,114.319 57.083,109.059 52.384,104.019 46.823,94.399 46.442,93.708 40.384,83.409 36.794,73.109 36.554,72.588 
			26.282,62.989 25.593,62.798 21.022,52.499 16.013,49.289 		"/>
		<polygon clip-path="url(#SVGID_2_)" fill="#4ACC00" points="5.743,44.048 4.493,42.199 5.743,40.909 14.733,31.889 5.743,28.968 
			1.724,21.588 -2.286,11.279 5.743,11.279 16.013,11.279 26.282,11.279 36.554,11.279 46.823,11.279 57.083,11.279 67.353,11.279 
			77.624,11.279 87.884,11.279 98.153,11.279 108.423,11.279 112.032,11.279 108.423,12.189 98.153,18.319 95.022,21.588 
			97.942,31.889 87.884,41.208 87.374,42.199 87.884,44.749 90.853,52.499 87.884,56.019 85.233,62.798 79.294,73.109 
			77.624,75.289 73.054,83.409 67.353,85.029 58.013,93.708 58.423,104.019 67.353,107.909 72.272,114.319 67.353,123.349 
			58.294,114.319 57.083,108.199 53.192,104.019 48.413,93.708 46.823,93.309 40.862,83.409 37.532,73.109 36.554,71.019 
			27.813,62.798 26.282,59.918 22.583,52.499 16.013,48.279 		"/>
		<polygon clip-path="url(#SVGID_2_)" fill="#FFAF00" points="-25.058,196.748 -30.036,196.748 -25.058,192.537 -14.786,194.018 
			-4.517,191.848 -2.526,186.447 -4.517,181.536 -11.907,176.14 -4.517,168.73 -2.747,165.839 5.743,162.579 16.013,164.489 
			26.282,158.659 30.634,155.538 26.282,150.678 20.853,145.229 26.282,139.789 36.054,145.229 36.554,145.649 36.823,145.229 
			46.823,139.919 51.032,145.229 52.044,155.538 57.083,158.938 67.353,158.649 74.544,155.538 71.003,145.229 68.833,134.929 
			75.563,124.629 74.692,114.319 67.353,104.749 65.673,104.019 66.704,93.708 67.353,93.109 77.624,91.479 87.884,90.329 
			98.153,89.229 103.743,93.708 108.423,103.609 108.714,104.019 108.423,104.109 102.894,114.319 98.153,122.999 87.884,123.439 
			84.163,124.629 87.884,128.099 95.063,134.929 92.063,145.229 89.884,155.538 95.294,165.839 88.593,176.14 88.862,186.447 
			87.884,195.117 87.522,196.748 77.624,196.748 67.353,196.748 57.083,196.748 46.823,196.748 36.554,196.748 29.163,196.748 
			26.282,193.447 23.714,186.447 26.282,178.278 36.554,178.81 39.782,176.14 36.644,165.839 36.554,165.419 36.304,165.839 
			26.282,174.978 16.013,170.58 12.323,176.14 11.952,186.447 14.192,196.748 5.743,196.748 -4.517,196.748 -14.786,196.748 		"/>
		<polygon clip-path="url(#SVGID_2_)" fill="#41C900" points="5.743,43.258 5.022,42.199 5.743,41.449 15.272,31.889 5.743,28.798 
			1.823,21.588 -2.097,11.279 5.743,11.279 16.013,11.279 26.282,11.279 36.554,11.279 46.823,11.279 57.083,11.279 67.353,11.279 
			77.624,11.279 87.884,11.279 98.153,11.279 107.983,11.279 98.153,17.349 94.093,21.588 95.862,31.889 87.884,39.279 
			86.374,42.199 87.884,49.789 88.923,52.499 87.884,53.729 84.333,62.798 77.813,73.109 77.624,73.359 71.964,83.409 
			67.353,84.719 57.673,93.708 58.144,104.019 57.083,107.329 54.003,104.019 51.544,93.708 46.823,92.529 41.333,83.409 
			38.263,73.109 36.554,69.449 29.483,62.798 26.282,56.769 24.153,52.499 16.013,47.269 		"/>
		<polygon clip-path="url(#SVGID_2_)" fill="#36C600" points="5.743,42.479 5.554,42.199 5.743,41.999 15.823,31.889 5.743,28.619 
			1.923,21.588 -1.907,11.279 5.743,11.279 16.013,11.279 26.282,11.279 36.554,11.279 46.823,11.279 57.083,11.279 67.353,11.279 
			77.624,11.279 87.884,11.279 98.153,11.279 106.423,11.279 98.153,16.389 93.163,21.588 93.772,31.889 87.884,37.338 
			85.374,42.199 87.384,52.499 83.442,62.798 77.624,71.889 76.673,73.109 70.874,83.409 67.353,84.409 57.343,93.708 
			57.874,104.019 57.083,106.458 54.804,104.019 54.683,93.708 46.823,91.739 41.804,83.409 39.003,73.109 36.554,67.869 
			31.163,62.798 26.282,53.628 25.724,52.499 16.013,46.269 		"/>
		<polygon clip-path="url(#SVGID_2_)" fill="#2AC400" points="5.743,28.439 2.013,21.588 -1.718,11.279 5.743,11.279 16.013,11.279 
			26.282,11.279 36.554,11.279 46.823,11.279 57.083,11.279 67.353,11.279 77.624,11.279 87.884,11.279 98.153,11.279 
			104.853,11.279 98.153,15.418 92.233,21.588 91.683,31.889 87.884,35.409 84.374,42.199 86.294,52.499 82.544,62.798 
			77.624,70.489 75.583,73.109 69.782,83.409 67.353,84.099 57.083,93.549 46.823,90.958 42.282,83.409 39.743,73.109 
			36.554,66.298 32.833,62.798 26.743,52.499 26.282,52.088 16.013,45.258 7.532,42.199 16.013,33.689 16.313,31.889 16.013,31.668 
					"/>
		<polygon clip-path="url(#SVGID_2_)" fill="#FFA500" points="-25.058,196.748 -28.468,196.748 -25.058,193.867 -14.786,194.777 
			-4.517,194.357 -1.597,186.447 -4.517,179.249 -8.776,176.14 -4.517,171.867 -0.827,165.839 5.743,163.319 16.013,165.679 
			26.282,160.448 33.144,155.538 36.554,149.838 39.612,145.229 46.823,141.399 49.862,145.229 51.753,155.538 57.083,159.129 
			67.353,158.829 74.954,155.538 71.544,145.229 69.532,134.929 76.003,124.629 74.782,114.319 67.353,104.629 65.942,104.019 
			67.032,93.708 67.353,93.419 77.624,91.849 87.884,90.859 98.153,89.729 103.112,93.708 108.013,104.019 102.724,114.319 
			98.153,122.689 87.884,122.989 82.753,124.629 87.884,129.409 93.692,134.929 91.204,145.229 89.163,155.538 94.894,165.839 
			88.253,176.14 88.532,186.447 87.884,192.197 86.884,196.748 77.624,196.748 67.353,196.748 57.083,196.748 46.823,196.748 
			36.554,196.748 32.294,196.748 26.282,189.857 25.032,186.447 26.282,182.468 36.554,179.708 40.874,176.14 37.532,165.839 
			36.554,161.229 33.794,165.839 26.282,172.688 16.013,166.38 9.532,176.14 11.253,186.447 10.612,196.748 5.743,196.748 
			-4.517,196.748 -14.786,196.748 		"/>
		<polygon clip-path="url(#SVGID_2_)" fill="#19C100" points="5.743,28.258 2.112,21.588 -1.517,11.279 5.743,11.279 16.013,11.279 
			26.282,11.279 36.554,11.279 46.823,11.279 57.083,11.279 67.353,11.279 77.624,11.279 87.884,11.279 98.153,11.279 
			103.282,11.279 98.153,14.449 91.304,21.588 89.593,31.889 87.884,33.468 83.362,42.199 85.204,52.499 81.653,62.798 
			77.624,69.088 74.493,73.109 68.692,83.409 67.353,83.789 57.083,92.849 46.823,90.169 42.753,83.409 40.483,73.109 
			36.554,64.729 34.503,62.798 27.454,52.499 26.282,51.439 16.013,44.249 10.323,42.199 16.013,36.479 16.782,31.889 
			16.013,31.319 		"/>
		<polygon clip-path="url(#SVGID_2_)" fill="#0AC012" points="5.743,28.088 2.214,21.588 -1.327,11.279 5.743,11.279 16.013,11.279 
			26.282,11.279 36.554,11.279 46.823,11.279 57.083,11.279 67.353,11.279 77.624,11.279 87.884,11.279 98.153,11.279 
			101.714,11.279 98.153,13.479 90.374,21.588 87.884,31.229 87.724,31.889 82.362,42.199 84.112,52.499 80.753,62.798 
			77.624,67.699 73.403,73.109 67.593,83.409 67.353,83.479 57.083,92.149 46.823,89.379 43.224,83.409 41.214,73.109 
			36.554,63.159 36.173,62.798 28.173,52.499 26.282,50.798 16.013,43.249 13.103,42.199 16.013,39.279 17.243,31.889 
			16.013,30.968 		"/>
		<polygon clip-path="url(#SVGID_2_)" fill="#1FC633" points="5.743,27.909 2.304,21.588 -1.138,11.279 5.743,11.279 16.013,11.279 
			26.282,11.279 36.554,11.279 46.823,11.279 57.083,11.279 67.353,11.279 77.624,11.279 87.884,11.279 98.153,11.279 
			100.153,11.279 98.153,12.519 89.454,21.588 87.884,27.639 86.862,31.889 81.362,42.199 83.022,52.499 79.862,62.798 
			77.624,66.298 72.313,73.109 67.353,81.909 66.704,83.409 57.083,91.458 46.823,88.599 43.704,83.409 41.954,73.109 
			37.124,62.798 36.554,62.109 28.894,52.499 26.282,50.149 16.013,42.239 15.894,42.199 16.013,42.069 17.702,31.889 
			16.013,30.619 		"/>
		<polygon clip-path="url(#SVGID_2_)" fill="#2ACB4A" points="5.743,27.729 2.403,21.588 -0.937,11.279 5.743,11.279 16.013,11.279 
			26.282,11.279 36.554,11.279 46.823,11.279 57.083,11.279 67.353,11.279 77.624,11.279 87.884,11.279 98.153,11.279 
			98.583,11.279 98.153,11.548 88.522,21.588 87.884,24.039 86.003,31.889 80.362,42.199 81.933,52.499 78.964,62.798 
			77.624,64.899 71.224,73.109 67.353,79.979 65.874,83.409 57.083,90.759 46.823,87.809 44.173,83.409 42.692,73.109 
			37.862,62.798 36.554,61.208 29.603,52.499 26.282,49.508 16.813,42.199 18.173,31.889 16.013,30.269 		"/>
		<polygon clip-path="url(#SVGID_2_)" fill="#32D05E" points="5.743,27.559 2.503,21.588 -0.747,11.279 5.743,11.279 16.013,11.279 
			26.282,11.279 36.554,11.279 46.823,11.279 57.083,11.279 67.353,11.279 77.624,11.279 87.884,11.279 97.362,11.279 
			87.884,21.229 87.544,21.588 85.134,31.889 79.353,42.199 80.843,52.499 78.073,62.798 77.624,63.499 70.134,73.109 
			67.353,78.039 65.032,83.409 57.083,90.059 46.823,87.029 44.644,83.409 43.433,73.109 38.593,62.798 36.554,60.309 
			30.323,52.499 26.282,48.859 17.653,42.199 18.634,31.889 16.013,29.918 		"/>
		<polygon clip-path="url(#SVGID_2_)" fill="#37D571" points="5.743,27.378 2.593,21.588 -0.558,11.279 5.743,11.279 16.013,11.279 
			26.282,11.279 36.554,11.279 46.823,11.279 57.083,11.279 67.353,11.279 77.624,11.279 87.884,11.279 96.272,11.279 
			87.884,20.079 86.454,21.588 84.272,31.889 78.353,42.199 79.753,52.499 77.624,60.708 77.253,62.798 69.044,73.109 
			67.353,76.109 64.192,83.409 57.083,89.359 46.823,86.239 45.124,83.409 44.163,73.109 39.333,62.798 36.554,59.409 
			31.044,52.499 26.282,48.218 18.483,42.199 19.103,31.889 16.013,29.569 		"/>
		<polygon clip-path="url(#SVGID_2_)" fill="#3ADB84" points="5.743,27.199 2.692,21.588 -0.366,11.279 5.743,11.279 16.013,11.279 
			26.282,11.279 36.554,11.279 46.823,11.279 57.083,11.279 67.353,11.279 77.624,11.279 87.884,11.279 95.183,11.279 
			87.884,18.939 85.362,21.588 83.403,31.889 77.624,41.798 77.464,42.199 77.624,44.458 78.663,52.499 77.624,56.519 
			76.513,62.798 67.954,73.109 67.353,74.168 63.362,83.409 57.083,88.659 46.823,85.449 45.593,83.409 44.903,73.109 
			40.073,62.798 36.554,58.508 31.753,52.499 26.282,47.569 19.323,42.199 19.563,31.889 16.013,29.218 		"/>
		<polygon clip-path="url(#SVGID_2_)" fill="#FF9A00" points="36.554,196.748 35.423,196.748 26.362,186.447 36.554,180.608 
			41.964,176.14 38.433,165.839 36.554,157.038 35.653,155.538 36.554,154.028 42.403,145.229 46.823,142.879 48.683,145.229 
			51.474,155.538 57.083,159.319 67.353,158.999 75.353,155.538 72.093,145.229 70.224,134.929 76.442,124.629 74.884,114.319 
			67.353,104.509 66.224,104.019 67.353,93.839 67.483,93.708 77.624,92.219 87.884,91.379 98.153,90.239 102.483,93.708 
			107.413,104.019 102.554,114.319 98.153,122.389 87.884,122.539 81.353,124.629 87.884,130.708 92.323,134.929 90.353,145.229 
			88.442,155.538 94.493,165.839 87.913,176.14 88.204,186.447 87.884,189.287 86.233,196.748 77.624,196.748 67.353,196.748 
			57.083,196.748 46.823,196.748 		"/>
		<polygon clip-path="url(#SVGID_2_)" fill="#3CE096" points="5.743,27.019 2.792,21.588 -0.167,11.279 5.743,11.279 16.013,11.279 
			26.282,11.279 36.554,11.279 46.823,11.279 57.083,11.279 67.353,11.279 77.624,11.279 87.884,11.279 94.093,11.279 
			87.884,17.798 84.272,21.588 82.544,31.889 77.624,40.319 76.884,42.199 77.593,52.499 75.782,62.798 67.353,72.718 
			66.903,73.109 62.522,83.409 57.083,87.958 46.823,84.669 46.063,83.409 45.644,73.109 40.813,62.798 36.554,57.609 
			32.474,52.499 26.282,46.918 20.153,42.199 20.022,31.889 16.013,28.869 		"/>
		<polygon clip-path="url(#SVGID_2_)" fill="#3CE5A9" points="5.743,26.849 2.884,21.588 0.022,11.279 5.743,11.279 16.013,11.279 
			26.282,11.279 36.554,11.279 46.823,11.279 57.083,11.279 67.353,11.279 77.624,11.279 87.884,11.279 93.003,11.279 
			87.884,16.649 83.183,21.588 81.683,31.889 77.624,38.838 76.304,42.199 76.874,52.499 75.044,62.798 67.353,71.849 
			65.894,73.109 61.692,83.409 57.083,87.259 46.823,83.879 46.532,83.409 46.384,73.109 41.544,62.798 36.554,56.718 
			33.183,52.499 26.282,46.279 20.993,42.199 20.493,31.889 16.013,28.519 		"/>
		<polygon clip-path="url(#SVGID_2_)" fill="#FF8F00" points="36.554,195.668 27.933,186.447 36.554,181.497 43.054,176.14 
			39.323,165.839 36.964,155.538 45.183,145.229 46.823,144.358 47.513,145.229 51.183,155.538 57.083,159.508 67.353,159.178 
			75.763,155.538 72.634,145.229 70.913,134.929 76.884,124.629 74.974,114.319 67.353,104.389 66.503,104.019 67.353,96.359 
			69.993,93.708 77.624,92.589 87.884,91.899 98.153,90.739 101.862,93.708 106.823,104.019 102.394,114.319 98.153,122.079 
			87.884,122.089 79.954,124.629 87.884,132.019 90.942,134.929 89.493,145.229 87.884,154.409 87.394,155.538 87.884,155.688 
			94.093,165.839 87.884,175.568 87.073,176.14 87.862,186.447 85.593,196.748 77.624,196.748 67.353,196.748 57.083,196.748 
			46.823,196.748 37.554,196.748 		"/>
		<polygon clip-path="url(#SVGID_2_)" fill="#3AEBBB" points="5.743,26.668 2.983,21.588 0.214,11.279 5.743,11.279 16.013,11.279 
			26.282,11.279 36.554,11.279 46.823,11.279 57.083,11.279 67.353,11.279 77.624,11.279 87.884,11.279 91.913,11.279 
			87.884,15.508 82.093,21.588 80.813,31.889 77.624,37.359 75.714,42.199 76.163,52.499 74.304,62.798 67.353,70.979 
			64.894,73.109 60.853,83.409 57.083,86.559 47.663,83.409 47.323,73.109 46.823,72.468 42.282,62.798 36.554,55.819 
			33.903,52.499 26.282,45.628 21.823,42.199 20.952,31.889 16.013,28.168 		"/>
		<polygon clip-path="url(#SVGID_2_)" fill="#FF8300" points="36.554,193.998 29.493,186.447 36.554,182.397 44.144,176.14 
			40.224,165.839 37.603,155.538 46.823,145.518 50.903,155.538 57.083,159.708 67.353,159.358 76.173,155.538 73.173,145.229 
			71.603,134.929 77.333,124.629 75.063,114.319 67.353,104.269 66.782,104.019 67.353,98.869 72.493,93.708 77.624,92.958 
			87.884,92.429 98.153,91.239 101.233,93.708 106.224,104.019 102.224,114.319 98.153,121.769 87.884,121.649 78.554,124.629 
			87.884,133.329 89.573,134.929 88.644,145.229 87.884,149.538 85.263,155.538 87.884,156.338 93.692,165.839 87.884,174.947 
			86.192,176.14 87.044,186.447 84.942,196.748 77.624,196.748 67.353,196.748 57.083,196.748 46.823,196.748 39.124,196.748 		"/>
		<polygon clip-path="url(#SVGID_2_)" fill="#35F0CE" points="5.743,26.489 3.083,21.588 0.413,11.279 5.743,11.279 16.013,11.279 
			26.282,11.279 36.554,11.279 46.823,11.279 57.083,11.279 67.353,11.279 77.624,11.279 87.884,11.279 90.823,11.279 
			87.884,14.359 81.003,21.588 79.954,31.889 77.624,35.878 75.134,42.199 75.442,52.499 73.563,62.798 67.353,70.109 
			63.894,73.109 60.022,83.409 57.083,85.869 49.753,83.409 48.573,73.109 46.823,70.899 43.022,62.798 36.554,54.918 
			34.624,52.499 26.282,44.989 22.663,42.199 21.423,31.889 16.013,27.819 		"/>
		<polygon clip-path="url(#SVGID_2_)" fill="#2CF6E0" points="5.743,26.319 3.173,21.588 0.603,11.279 5.743,11.279 16.013,11.279 
			26.282,11.279 36.554,11.279 46.823,11.279 57.083,11.279 67.353,11.279 77.624,11.279 87.884,11.279 89.733,11.279 
			87.884,13.218 79.913,21.588 79.083,31.889 77.624,34.399 74.554,42.199 74.724,52.499 72.833,62.798 67.353,69.249 
			62.894,73.109 59.183,83.409 57.083,85.169 51.833,83.409 49.833,73.109 46.823,69.329 43.763,62.798 36.554,54.019 
			35.333,52.499 26.282,44.338 23.503,42.199 21.884,31.889 16.013,27.479 		"/>
		<polygon clip-path="url(#SVGID_2_)" fill="#1BFBF3" points="5.743,26.139 3.272,21.588 0.792,11.279 5.743,11.279 16.013,11.279 
			26.282,11.279 36.554,11.279 46.823,11.279 57.083,11.279 67.353,11.279 77.624,11.279 87.884,11.279 88.644,11.279 
			87.884,12.079 78.823,21.588 78.224,31.889 77.624,32.918 73.964,42.199 74.013,52.499 72.093,62.798 67.353,68.378 
			61.884,73.109 58.343,83.409 57.083,84.469 53.923,83.409 51.083,73.109 46.823,67.758 44.493,62.798 36.554,53.119 
			36.054,52.499 26.282,43.699 24.333,42.199 22.353,31.889 16.013,27.128 		"/>
		<polygon clip-path="url(#SVGID_2_)" fill="#0DFBFF" points="5.743,25.958 3.362,21.588 0.983,11.279 5.743,11.279 16.013,11.279 
			26.282,11.279 36.554,11.279 46.823,11.279 57.083,11.279 67.353,11.279 77.624,11.279 87.624,11.279 77.733,21.588 
			77.624,24.168 77.304,31.889 73.384,42.199 73.294,52.499 71.353,62.798 67.353,67.508 60.884,73.109 57.513,83.409 
			57.083,83.769 56.013,83.409 52.333,73.109 46.823,66.179 45.233,62.798 37.323,52.499 36.554,52.279 26.282,43.048 
			25.173,42.199 22.813,31.889 16.013,26.779 		"/>
		<polygon clip-path="url(#SVGID_2_)" fill="#20F0FF" points="5.743,25.779 3.464,21.588 1.183,11.279 5.743,11.279 16.013,11.279 
			26.282,11.279 36.554,11.279 46.823,11.279 57.083,11.279 67.353,11.279 77.624,11.279 86.753,11.279 77.624,20.779 
			76.724,21.588 76.253,31.889 72.804,42.199 72.583,52.499 70.612,62.798 67.353,66.639 59.884,73.109 57.083,81.879 
			53.593,73.109 46.823,64.609 45.974,62.798 39.823,52.499 36.554,51.559 26.282,42.409 26.003,42.199 23.272,31.889 
			16.013,26.429 		"/>
		<polygon clip-path="url(#SVGID_2_)" fill="#29E5FF" points="5.743,25.609 3.563,21.588 1.372,11.279 5.743,11.279 16.013,11.279 
			26.282,11.279 36.554,11.279 46.823,11.279 57.083,11.279 67.353,11.279 77.624,11.279 85.894,11.279 77.624,19.878 
			75.724,21.588 75.214,31.889 72.214,42.199 71.862,52.499 69.884,62.798 67.353,65.779 58.874,73.109 57.083,78.729 
			54.843,73.109 46.823,63.039 46.714,62.798 42.333,52.499 36.554,50.838 26.823,42.199 26.282,41.069 23.743,31.889 
			16.013,26.079 		"/>
		<polygon clip-path="url(#SVGID_2_)" fill="#2EDAFF" points="5.743,25.429 3.653,21.588 1.563,11.279 5.743,11.279 16.013,11.279 
			26.282,11.279 36.554,11.279 46.823,11.279 57.083,11.279 67.353,11.279 77.624,11.279 85.032,11.279 77.624,18.989 
			74.714,21.588 74.163,31.889 71.634,42.199 71.144,52.499 69.144,62.798 67.353,64.909 57.874,73.109 57.083,75.588 
			56.093,73.109 48.073,62.798 46.823,57.458 44.843,52.499 36.554,50.119 27.634,42.199 26.282,39.399 24.202,31.889 
			16.013,25.729 		"/>
		<polygon clip-path="url(#SVGID_2_)" fill="#32CFFF" points="5.743,25.249 3.753,21.588 1.763,11.279 5.743,11.279 16.013,11.279 
			26.282,11.279 36.554,11.279 46.823,11.279 57.083,11.279 67.353,11.279 77.624,11.279 84.163,11.279 77.624,18.088 
			73.714,21.588 73.124,31.889 71.054,42.199 70.433,52.499 68.403,62.798 67.353,64.039 57.083,72.699 49.544,62.798 
			47.233,52.499 46.823,52.199 36.554,49.399 28.442,42.199 26.282,37.718 24.673,31.889 16.013,25.378 		"/>
		<polygon clip-path="url(#SVGID_2_)" fill="#33C4FF" points="5.743,25.069 3.853,21.588 1.952,11.279 5.743,11.279 16.013,11.279 
			26.282,11.279 36.554,11.279 46.823,11.279 57.083,11.279 67.353,11.279 77.624,11.279 83.304,11.279 77.624,17.189 
			72.714,21.588 72.073,31.889 70.464,42.199 69.714,52.499 67.663,62.798 67.353,63.168 57.083,70.758 51.022,62.798 
			49.153,52.499 46.823,50.809 36.554,48.679 29.253,42.199 26.282,36.039 25.134,31.889 16.013,25.029 		"/>
		<polygon clip-path="url(#SVGID_2_)" fill="#FF7C00" points="36.554,192.318 31.063,186.447 36.554,183.298 45.233,176.14 
			41.112,165.839 38.253,155.538 46.823,146.219 50.612,155.538 57.083,159.899 67.353,159.528 76.573,155.538 73.724,145.229 
			72.294,134.929 77.624,125.059 87.884,134.629 88.192,134.929 87.884,141.749 87.724,145.229 83.124,155.538 87.884,156.989 
			93.294,165.839 87.884,174.318 85.313,176.14 86.224,186.447 84.304,196.748 77.624,196.748 67.353,196.748 57.083,196.748 
			46.823,196.748 40.692,196.748 		"/>
		<polygon clip-path="url(#SVGID_2_)" fill="#32B9FF" points="5.743,24.899 3.942,21.588 2.144,11.279 5.743,11.279 16.013,11.279 
			26.282,11.279 36.554,11.279 46.823,11.279 57.083,11.279 67.353,11.279 77.624,11.279 82.433,11.279 77.624,16.289 
			71.704,21.588 71.032,31.889 69.884,42.199 68.993,52.499 67.353,60.739 65.753,62.798 57.083,68.829 52.493,62.798 
			51.083,52.499 46.823,49.409 36.554,47.968 30.054,42.199 26.282,34.369 25.593,31.889 16.013,24.679 		"/>
		<polygon clip-path="url(#SVGID_2_)" fill="#30AFFF" points="5.743,24.718 4.042,21.588 2.333,11.279 5.743,11.279 16.013,11.279 
			26.282,11.279 36.554,11.279 46.823,11.279 57.083,11.279 67.353,11.279 77.624,11.279 81.573,11.279 77.624,15.389 
			70.704,21.588 69.983,31.889 69.304,42.199 68.282,52.499 67.353,57.149 62.974,62.798 57.083,66.889 53.974,62.798 
			53.013,52.499 46.823,48.008 36.554,47.249 30.862,42.199 26.282,32.689 26.063,31.889 16.013,24.329 		"/>
		<polygon clip-path="url(#SVGID_2_)" fill="#FF7800" points="36.554,190.638 32.634,186.447 36.554,184.197 46.323,176.14 
			42.013,165.839 38.894,155.538 46.823,146.918 50.333,155.538 57.083,160.088 67.353,159.708 76.983,155.538 74.263,145.229 
			72.993,134.929 77.624,126.339 86.823,134.929 86.323,145.229 80.993,155.538 87.884,157.649 92.894,165.839 87.884,173.688 
			84.423,176.14 85.403,186.447 83.653,196.748 77.624,196.748 67.353,196.748 57.083,196.748 46.823,196.748 42.253,196.748 		"/>
		<polygon clip-path="url(#SVGID_2_)" fill="#2DA4FF" points="5.743,24.539 4.144,21.588 2.532,11.279 5.743,11.279 16.013,11.279 
			26.282,11.279 36.554,11.279 46.823,11.279 57.083,11.279 67.353,11.279 77.624,11.279 80.704,11.279 77.624,14.489 
			69.704,21.588 68.942,31.889 68.714,42.199 67.563,52.499 67.353,53.559 60.183,62.798 57.083,64.958 55.442,62.798 
			54.942,52.499 46.823,46.609 36.554,46.529 31.673,42.199 28.913,31.889 26.282,31.359 16.013,23.979 		"/>
		<polygon clip-path="url(#SVGID_2_)" fill="#FF7300" points="36.554,188.968 34.192,186.447 36.554,185.098 46.823,176.47 
			47.544,176.14 46.823,174.998 42.903,165.839 39.532,155.538 46.823,147.618 50.044,155.538 57.083,160.278 67.353,159.879 
			77.384,155.538 74.804,145.229 73.683,134.929 77.624,127.619 85.454,134.929 84.913,145.229 78.862,155.538 87.884,158.299 
			92.493,165.839 87.884,173.068 83.544,176.14 84.573,186.447 83.013,196.748 77.624,196.748 67.353,196.748 57.083,196.748 
			46.823,196.748 43.823,196.748 		"/>
		<polygon clip-path="url(#SVGID_2_)" fill="#2799FF" points="5.743,24.369 4.233,21.588 2.724,11.279 5.743,11.279 16.013,11.279 
			26.282,11.279 36.554,11.279 46.823,11.279 57.083,11.279 67.353,11.279 77.624,11.279 79.843,11.279 77.624,13.588 
			68.692,21.588 67.894,31.889 68.134,42.199 67.353,48.949 58.493,52.499 57.394,62.798 57.083,63.019 56.913,62.798 
			56.862,52.499 46.823,45.218 36.554,45.809 32.483,42.199 33.933,31.889 26.282,30.359 16.013,23.628 		"/>
		<polygon clip-path="url(#SVGID_2_)" fill="#1E8FFF" points="5.743,24.189 4.333,21.588 2.913,11.279 5.743,11.279 16.013,11.279 
			26.282,11.279 36.554,11.279 46.823,11.279 57.083,11.279 67.353,11.279 77.624,11.279 78.983,11.279 77.624,12.689 
			67.692,21.588 67.353,25.878 65.644,31.889 67.353,37.899 67.554,42.199 67.353,43.909 57.083,48.779 46.823,43.819 
			36.554,45.088 33.294,42.199 36.554,32.979 40.544,31.889 36.554,31.389 26.282,29.349 16.013,23.279 		"/>
		<polygon clip-path="url(#SVGID_2_)" fill="#0F84FF" points="5.743,24.008 4.433,21.588 3.112,11.279 5.743,11.279 16.013,11.279 
			26.282,11.279 36.554,11.279 46.823,11.279 57.083,11.279 67.353,11.279 77.624,11.279 78.112,11.279 77.624,11.798 
			67.353,20.869 66.433,21.588 62.063,31.889 61.843,42.199 57.083,44.588 46.823,42.418 36.554,44.369 34.103,42.199 
			36.554,35.269 46.823,38.159 48.384,31.889 46.823,31.519 36.554,30.338 26.282,28.338 16.013,22.929 		"/>
		<polygon clip-path="url(#SVGID_2_)" fill="#087BFF" points="5.743,23.829 4.522,21.588 3.304,11.279 5.743,11.279 16.013,11.279 
			26.282,11.279 36.554,11.279 46.823,11.279 57.083,11.279 67.353,11.279 77.083,11.279 67.353,19.769 65.044,21.588 
			58.474,31.889 57.083,36.789 54.644,31.889 46.823,30.039 36.554,29.289 26.282,27.338 16.013,22.579 		"/>
		<polygon clip-path="url(#SVGID_2_)" fill="#C0EF00" points="108.423,153.698 103.853,145.229 105.294,134.929 101.032,124.629 
			105.083,114.319 108.423,108.149 118.692,110.309 120.583,114.319 128.954,120.458 130.433,124.629 139.233,133.958 
			139.233,134.929 139.233,145.229 139.233,147.018 136.413,145.229 128.954,135.958 118.913,145.229 118.692,145.538 		"/>
		<polygon clip-path="url(#SVGID_2_)" fill="#1474FF" points="5.743,23.659 4.622,21.588 3.493,11.279 5.743,11.279 16.013,11.279 
			26.282,11.279 36.554,11.279 46.823,11.279 57.083,11.279 67.353,11.279 75.833,11.279 67.353,18.679 63.653,21.588 
			57.083,30.708 46.823,28.559 36.554,28.249 26.282,26.329 16.013,22.229 		"/>
		<polygon clip-path="url(#SVGID_2_)" fill="#B5EC00" points="108.423,151.899 104.823,145.229 105.964,134.929 101.403,124.629 
			105.253,114.319 108.423,108.458 118.692,113.109 119.263,114.319 128.954,121.429 130.093,124.629 139.233,134.319 
			139.233,134.929 139.233,145.229 139.233,146.508 137.224,145.229 128.954,134.949 118.692,144.278 116.874,145.229 		"/>
		<polygon clip-path="url(#SVGID_2_)" fill="#1A6CFF" points="5.743,23.479 4.714,21.588 3.683,11.279 5.743,11.279 16.013,11.279 
			26.282,11.279 36.554,11.279 46.823,11.279 57.083,11.279 67.353,11.279 74.573,11.279 67.353,17.588 62.253,21.588 
			57.083,28.769 46.823,27.079 36.554,27.199 26.282,25.329 16.013,21.878 		"/>
		<polygon clip-path="url(#SVGID_2_)" fill="#FF7C00" points="67.353,104.139 67.063,104.019 67.353,101.389 75.003,93.708 
			77.624,93.329 87.884,92.949 98.153,91.749 100.603,93.708 105.624,104.019 102.054,114.319 98.153,121.458 87.884,121.199 
			77.624,124.499 75.163,114.319 		"/>
		<polygon clip-path="url(#SVGID_2_)" fill="#FF7800" points="67.353,104.019 67.343,104.019 67.353,103.909 77.513,93.708 
			77.624,93.699 87.884,93.479 98.153,92.249 99.983,93.708 105.032,104.019 101.884,114.319 98.153,121.149 87.884,120.749 
			77.624,124.109 75.253,114.319 		"/>
		<polygon clip-path="url(#SVGID_2_)" fill="#1D64FF" points="5.743,23.298 4.813,21.588 3.884,11.279 5.743,11.279 16.013,11.279 
			26.282,11.279 36.554,11.279 46.823,11.279 57.083,11.279 67.353,11.279 73.323,11.279 67.353,16.489 60.862,21.588 
			57.083,26.838 46.823,25.599 36.554,26.149 26.282,24.319 16.563,21.588 16.013,21.409 15.853,21.588 		"/>
		<polygon clip-path="url(#SVGID_2_)" fill="#FF7300" points="77.624,123.729 75.343,114.319 67.763,104.019 77.624,94.119 
			87.884,94.119 90.173,93.708 98.153,92.749 99.353,93.708 104.433,104.019 101.714,114.319 98.153,120.839 87.884,120.309 		"/>
		<polygon clip-path="url(#SVGID_2_)" fill="#FF6F00" points="77.624,123.339 75.442,114.319 68.183,104.019 77.624,94.549 
			87.884,94.859 94.343,93.708 98.153,93.259 98.724,93.708 103.833,104.019 101.544,114.319 98.153,120.539 87.884,119.859 		"/>
		<polygon clip-path="url(#SVGID_2_)" fill="#1F5CFF" points="5.743,23.128 4.913,21.588 4.073,11.279 5.743,11.279 16.013,11.279 
			26.282,11.279 36.554,11.279 46.823,11.279 57.083,11.279 67.353,11.279 72.073,11.279 67.353,15.399 59.474,21.588 
			57.083,24.899 46.823,24.119 36.554,25.099 26.282,23.309 20.144,21.588 16.013,20.208 14.813,21.588 		"/>
		<polygon clip-path="url(#SVGID_2_)" fill="#FF6A00" points="77.624,122.958 75.532,114.319 68.612,104.019 77.624,94.969 
			87.884,95.599 98.153,93.819 103.233,104.019 101.384,114.319 98.153,120.229 87.884,119.409 		"/>
		<polygon clip-path="url(#SVGID_2_)" fill="#AAEA00" points="108.423,150.098 105.794,145.229 106.624,134.929 101.772,124.629 
			105.423,114.319 108.423,108.769 118.374,114.319 118.692,114.649 128.954,122.399 129.743,124.629 128.954,131.859 
			127.673,134.929 118.692,143.079 114.603,145.229 		"/>
		<polygon clip-path="url(#SVGID_2_)" fill="#FF6500" points="77.624,122.569 75.624,114.319 69.032,104.019 77.624,95.399 
			87.884,96.339 98.153,95.019 102.644,104.019 101.214,114.319 98.153,119.919 87.884,118.958 		"/>
		<polygon clip-path="url(#SVGID_2_)" fill="#2054FF" points="5.743,22.949 5.003,21.588 4.263,11.279 5.743,11.279 16.013,11.279 
			26.282,11.279 36.554,11.279 46.823,11.279 57.083,11.279 67.353,11.279 70.813,11.279 67.353,14.298 58.073,21.588 
			57.083,22.968 46.823,22.639 36.554,24.048 26.282,22.309 23.724,21.588 16.013,19.008 13.763,21.588 		"/>
		<polygon clip-path="url(#SVGID_2_)" fill="#9FE700" points="108.423,148.309 106.763,145.229 107.294,134.929 102.153,124.629 
			105.583,114.319 108.423,109.079 117.813,114.319 118.692,115.219 128.954,123.369 129.403,124.629 128.954,128.708 
			126.353,134.929 118.692,141.879 112.323,145.229 		"/>
		<polygon clip-path="url(#SVGID_2_)" fill="#FF6000" points="77.624,122.189 75.714,114.319 69.464,104.019 77.624,95.829 
			87.884,97.079 98.153,96.219 102.044,104.019 101.044,114.319 98.153,119.609 87.884,118.519 		"/>
		<polygon clip-path="url(#SVGID_2_)" fill="#FF5B00" points="77.624,121.799 75.813,114.319 69.884,104.019 77.624,96.249 
			87.884,97.819 98.153,97.409 101.442,104.019 100.874,114.319 98.153,119.299 87.884,118.069 		"/>
		<polygon clip-path="url(#SVGID_2_)" fill="#204CFF" points="5.743,22.769 5.103,21.588 4.464,11.279 5.743,11.279 16.013,11.279 
			26.282,11.279 36.554,11.279 46.823,11.279 57.083,11.279 67.353,11.279 69.563,11.279 67.353,13.208 57.083,20.929 
			46.823,20.559 45.022,21.588 36.554,23.008 28.073,21.588 26.282,21.189 16.013,17.809 12.724,21.588 		"/>
		<polygon clip-path="url(#SVGID_2_)" fill="#94E400" points="108.423,146.508 107.733,145.229 107.954,134.929 102.522,124.629 
			105.753,114.319 108.423,109.389 117.263,114.319 118.692,115.789 128.954,124.329 129.063,124.629 128.954,125.569 
			125.032,134.929 118.692,140.689 110.044,145.229 		"/>
		<polygon clip-path="url(#SVGID_2_)" fill="#FF5500" points="77.624,121.419 75.903,114.319 70.313,104.019 77.624,96.679 
			87.884,98.559 98.153,98.609 100.853,104.019 100.704,114.319 98.153,118.989 87.884,117.619 		"/>
		<polygon clip-path="url(#SVGID_2_)" fill="#FF4F00" points="77.624,121.029 75.993,114.319 70.733,104.019 77.624,97.109 
			87.884,99.299 98.153,99.809 100.253,104.019 100.544,114.319 98.153,118.689 87.884,117.179 		"/>
		<polygon clip-path="url(#SVGID_2_)" fill="#1E42FF" points="5.743,22.588 5.202,21.588 4.653,11.279 5.743,11.279 16.013,11.279 
			26.282,11.279 36.554,11.279 46.823,11.279 57.083,11.279 67.353,11.279 68.304,11.279 67.353,12.119 57.083,18.649 
			46.823,16.958 38.753,21.588 36.554,21.958 34.343,21.588 26.282,19.789 16.013,16.609 11.673,21.588 		"/>
		<polygon clip-path="url(#SVGID_2_)" fill="#FF4900" points="77.624,120.649 76.093,114.319 71.163,104.019 77.624,97.529 
			87.884,100.039 98.153,101.009 99.653,104.019 100.374,114.319 98.153,118.379 87.884,116.729 		"/>
		<polygon clip-path="url(#SVGID_2_)" fill="#FFBA00" points="16.013,131.839 14.224,124.629 16.013,121.739 26.282,116.539 
			35.862,114.319 36.554,114.229 36.683,114.319 46.823,120.679 49.522,124.629 46.823,130.939 36.554,130.809 26.282,133.379 		"/>
		<polygon clip-path="url(#SVGID_2_)" fill="#88E100" points="108.423,134.729 102.894,124.629 105.923,114.319 108.423,109.708 
			116.704,114.319 118.692,116.359 128.483,124.629 123.714,134.929 118.692,139.489 109.153,134.929 		"/>
		<polygon clip-path="url(#SVGID_2_)" fill="#FF4300" points="77.624,120.259 76.183,114.319 71.583,104.019 77.624,97.958 
			87.884,100.779 98.153,102.208 99.054,104.019 100.204,114.319 98.153,118.069 87.884,116.279 		"/>
		<polygon clip-path="url(#SVGID_2_)" fill="#7EDE00" points="108.423,134.049 103.263,124.629 106.093,114.319 108.423,110.019 
			116.144,114.319 118.692,116.929 127.804,124.629 122.394,134.929 118.692,138.289 111.663,134.929 		"/>
		<polygon clip-path="url(#SVGID_2_)" fill="#FF3E00" points="77.624,119.879 76.272,114.319 72.013,104.019 77.624,98.389 
			87.884,101.519 98.153,103.399 98.464,104.019 100.032,114.319 98.153,117.759 87.884,115.829 		"/>
		<polygon clip-path="url(#SVGID_2_)" fill="#77DC00" points="108.423,133.369 103.634,124.629 106.263,114.319 108.423,110.329 
			115.593,114.319 118.692,117.509 127.134,124.629 121.073,134.929 118.692,137.089 114.163,134.929 		"/>
		<polygon clip-path="url(#SVGID_2_)" fill="#FF3B00" points="77.624,119.489 76.374,114.319 72.433,104.019 77.624,98.809 
			87.884,102.259 96.403,104.019 98.153,104.489 99.862,114.319 98.153,117.449 87.884,115.389 		"/>
		<polygon clip-path="url(#SVGID_2_)" fill="#1B39FF" points="5.743,22.418 5.292,21.588 4.843,11.279 5.743,11.279 16.013,11.279 
			26.282,11.279 36.554,11.279 46.823,11.279 57.083,11.279 66.353,11.279 57.083,16.359 46.823,13.369 36.554,19.258 
			26.282,18.389 16.013,15.409 10.634,21.588 		"/>
		<polygon clip-path="url(#SVGID_2_)" fill="#FF3800" points="77.624,119.109 76.464,114.319 72.862,104.019 77.624,99.239 
			87.884,102.999 92.823,104.019 98.153,105.458 99.692,114.319 98.153,117.149 87.884,114.939 		"/>
		<polygon clip-path="url(#SVGID_2_)" fill="#70D900" points="108.423,132.689 104.013,124.629 106.433,114.319 108.423,110.639 
			115.032,114.319 118.692,118.079 126.454,124.629 119.753,134.929 118.692,135.889 116.673,134.929 		"/>
		<polygon clip-path="url(#SVGID_2_)" fill="#FF3400" points="77.624,118.719 76.554,114.319 73.282,104.019 77.624,99.659 
			87.884,103.739 89.243,104.019 98.153,106.429 99.532,114.319 98.153,116.839 87.884,114.489 		"/>
		<polygon clip-path="url(#SVGID_2_)" fill="#69D600" points="108.423,132.009 104.384,124.629 106.593,114.319 108.423,110.949 
			114.474,114.319 118.692,118.649 125.772,124.629 118.692,134.739 		"/>
		<polygon clip-path="url(#SVGID_2_)" fill="#FFAF00" points="16.013,127.639 15.263,124.629 16.013,123.419 26.282,118.479 
			36.554,120.099 46.823,121.719 48.804,124.629 46.823,129.269 36.554,127.208 26.282,131.289 		"/>
		<polygon clip-path="url(#SVGID_2_)" fill="#62D400" points="108.423,131.329 104.753,124.629 106.763,114.319 108.423,111.259 
			113.923,114.319 118.692,119.219 125.093,124.629 118.692,133.769 		"/>
		<polygon clip-path="url(#SVGID_2_)" fill="#5AD100" points="108.423,130.649 105.124,124.629 106.933,114.319 108.423,111.569 
			113.362,114.319 118.692,119.789 124.413,124.629 118.692,132.809 		"/>
		<polygon clip-path="url(#SVGID_2_)" fill="#52CE00" points="108.423,129.969 105.503,124.629 107.103,114.319 108.423,111.879 
			112.804,114.319 118.692,120.359 123.743,124.629 118.692,131.839 		"/>
		<polygon clip-path="url(#SVGID_2_)" fill="#172DFF" points="5.743,22.239 5.394,21.588 5.032,11.279 5.743,11.279 16.013,11.279 
			26.282,11.279 36.554,11.279 44.192,11.279 36.554,15.659 26.282,16.989 16.013,14.218 9.583,21.588 		"/>
		<polygon clip-path="url(#SVGID_2_)" fill="#4ACC00" points="108.423,129.289 105.874,124.629 107.272,114.319 108.423,112.189 
			112.243,114.319 118.692,120.939 123.063,124.629 118.692,130.869 		"/>
		<polygon clip-path="url(#SVGID_2_)" fill="#FF3100" points="77.624,118.339 76.653,114.319 73.714,104.019 77.624,100.089 
			87.233,104.019 87.313,114.319 		"/>
		<polygon clip-path="url(#SVGID_2_)" fill="#41C900" points="108.423,128.609 106.243,124.629 107.442,114.319 108.423,112.499 
			111.692,114.319 118.692,121.509 122.384,124.629 118.692,129.899 		"/>
		<polygon clip-path="url(#SVGID_2_)" fill="#FF6F00" points="77.624,154.598 75.353,145.229 74.374,134.929 77.624,128.899 
			84.073,134.929 83.513,145.229 		"/>
		<polygon clip-path="url(#SVGID_2_)" fill="#FF2D00" points="77.624,117.949 76.743,114.319 74.134,104.019 77.624,100.519 
			86.192,104.019 86.384,114.319 		"/>
		<polygon clip-path="url(#SVGID_2_)" fill="#36C600" points="108.423,127.929 106.612,124.629 107.603,114.319 108.423,112.809 
			111.134,114.319 118.692,122.079 121.704,124.629 118.692,128.929 		"/>
		<polygon clip-path="url(#SVGID_2_)" fill="#1020FF" points="5.743,22.059 5.493,21.588 5.233,11.279 5.743,11.279 16.013,11.279 
			26.282,11.279 36.554,11.279 37.923,11.279 36.554,12.069 26.282,15.599 16.013,13.019 8.542,21.588 		"/>
		<polygon clip-path="url(#SVGID_2_)" fill="#FF2900" points="77.624,117.569 76.833,114.319 74.563,104.019 77.624,100.939 
			85.153,104.019 85.454,114.319 		"/>
		<polygon clip-path="url(#SVGID_2_)" fill="#2AC400" points="108.423,127.249 106.983,124.629 107.772,114.319 108.423,113.119 
			110.573,114.319 118.692,122.649 121.032,124.629 118.692,127.969 		"/>
		<polygon clip-path="url(#SVGID_2_)" fill="#FF6A00" points="77.624,152.358 75.894,145.229 75.063,134.929 77.624,130.189 
			82.704,134.929 82.103,145.229 		"/>
		<polygon clip-path="url(#SVGID_2_)" fill="#FF2500" points="77.624,117.179 76.933,114.319 74.983,104.019 77.624,101.369 
			84.103,104.019 84.522,114.319 		"/>
		<polygon clip-path="url(#SVGID_2_)" fill="#41C900" points="67.353,123.179 58.474,114.319 67.353,108.029 72.173,114.319 		"/>
		<polygon clip-path="url(#SVGID_2_)" fill="#19C100" points="108.423,126.569 107.362,124.629 107.942,114.319 108.423,113.429 
			110.022,114.319 118.692,123.219 120.353,124.629 118.692,126.999 		"/>
		<polygon clip-path="url(#SVGID_2_)" fill="#36C600" points="67.353,122.999 58.644,114.319 67.353,108.159 72.083,114.319 		"/>
		<polygon clip-path="url(#SVGID_2_)" fill="#2AC400" points="67.353,122.829 58.813,114.319 67.353,108.279 71.993,114.319 		"/>
		<polygon clip-path="url(#SVGID_2_)" fill="#040AFF" points="5.743,21.889 5.583,21.588 5.423,11.279 5.743,11.279 16.013,11.279 
			26.282,11.279 33.753,11.279 26.282,14.199 16.013,11.819 7.493,21.588 		"/>
		<polygon clip-path="url(#SVGID_2_)" fill="#19C100" points="67.353,122.659 58.983,114.319 67.353,108.399 71.894,114.319 		"/>
		<polygon clip-path="url(#SVGID_2_)" fill="#FF2000" points="77.624,116.799 77.022,114.319 75.413,104.019 77.624,101.799 
			83.063,104.019 83.593,114.319 		"/>
		<polygon clip-path="url(#SVGID_2_)" fill="#0AC012" points="67.353,122.489 59.153,114.319 67.353,108.519 71.804,114.319 		"/>
		<polygon clip-path="url(#SVGID_2_)" fill="#1FC633" points="67.353,122.319 59.323,114.319 67.353,108.639 71.714,114.319 		"/>
		<polygon clip-path="url(#SVGID_2_)" fill="#0AC012" points="108.423,125.889 107.733,124.629 108.112,114.319 108.423,113.739 
			109.464,114.319 118.692,123.789 119.673,124.629 118.692,126.029 		"/>
		<polygon clip-path="url(#SVGID_2_)" fill="#2ACB4A" points="67.353,122.149 59.503,114.319 67.353,108.759 71.612,114.319 		"/>
		<polygon clip-path="url(#SVGID_2_)" fill="#FFA500" points="26.282,129.189 17.183,124.629 26.282,120.409 35.384,124.629 		"/>
		<polygon clip-path="url(#SVGID_2_)" fill="#32D05E" points="67.353,121.979 59.673,114.319 67.353,108.879 71.522,114.319 		"/>
		<polygon clip-path="url(#SVGID_2_)" fill="#37D571" points="67.353,121.809 59.843,114.319 67.353,109.009 71.433,114.319 		"/>
		<polygon clip-path="url(#SVGID_2_)" fill="#FF1A00" points="77.624,116.409 77.112,114.319 75.833,104.019 77.624,102.219 
			82.013,104.019 82.673,114.319 		"/>
		<polygon clip-path="url(#SVGID_2_)" fill="#3ADB84" points="67.353,121.639 60.013,114.319 67.353,109.129 71.333,114.319 		"/>
		<polygon clip-path="url(#SVGID_2_)" fill="#3CE096" points="67.353,121.458 60.183,114.319 67.353,109.249 71.243,114.319 		"/>
		<polygon clip-path="url(#SVGID_2_)" fill="#1FC633" points="108.423,125.208 108.103,124.629 108.282,114.319 108.423,114.049 
			108.903,114.319 118.692,124.369 118.993,124.629 118.692,125.059 		"/>
		<polygon clip-path="url(#SVGID_2_)" fill="#3CE5A9" points="67.353,121.289 60.353,114.319 67.353,109.369 71.153,114.319 		"/>
		<polygon clip-path="url(#SVGID_2_)" fill="#3AEBBB" points="67.353,121.119 60.532,114.319 67.353,109.489 71.054,114.319 		"/>
		<polygon clip-path="url(#SVGID_2_)" fill="#35F0CE" points="67.353,120.949 60.704,114.319 67.353,109.609 70.964,114.319 		"/>
		<polygon clip-path="url(#SVGID_2_)" fill="#2CF6E0" points="67.353,120.779 60.874,114.319 67.353,109.739 70.874,114.319 		"/>
		<polygon clip-path="url(#SVGID_2_)" fill="#FF1300" points="77.624,116.029 77.214,114.319 76.263,104.019 77.624,102.649 
			80.974,104.019 81.743,114.319 		"/>
		<polygon clip-path="url(#SVGID_2_)" fill="#1BFBF3" points="67.353,120.609 61.044,114.319 67.353,109.859 70.772,114.319 		"/>
		<polygon clip-path="url(#SVGID_2_)" fill="#7EDE00" points="118.692,88.239 111.464,83.409 118.692,78.579 122.173,83.409 		"/>
		<polygon clip-path="url(#SVGID_2_)" fill="#0DFBFF" points="67.353,120.439 61.214,114.319 67.353,109.979 70.683,114.319 		"/>
		<polygon clip-path="url(#SVGID_2_)" fill="#FF3100" points="98.153,116.529 88.704,114.319 98.153,107.389 99.362,114.319 		"/>
		<polygon clip-path="url(#SVGID_2_)" fill="#20F0FF" points="67.353,120.269 61.384,114.319 67.353,110.099 70.593,114.319 		"/>
		<polygon clip-path="url(#SVGID_2_)" fill="#29E5FF" points="67.353,120.099 61.563,114.319 67.353,110.219 70.493,114.319 		"/>
		<polygon clip-path="url(#SVGID_2_)" fill="#2EDAFF" points="67.353,119.919 61.733,114.319 67.353,110.339 70.403,114.319 		"/>
		<polygon clip-path="url(#SVGID_2_)" fill="#32CFFF" points="67.353,119.749 61.903,114.319 67.353,110.469 70.313,114.319 		"/>
		<polygon clip-path="url(#SVGID_2_)" fill="#FF0900" points="77.624,115.639 77.304,114.319 76.683,104.019 77.624,103.079 
			79.933,104.019 80.813,114.319 		"/>
		<polygon clip-path="url(#SVGID_2_)" fill="#33C4FF" points="67.353,119.579 62.073,114.319 67.353,110.589 70.214,114.319 		"/>
		<polygon clip-path="url(#SVGID_2_)" fill="#FF2D00" points="98.153,116.219 90.022,114.319 98.153,108.359 99.192,114.319 		"/>
		<polygon clip-path="url(#SVGID_2_)" fill="#32B9FF" points="67.353,119.409 62.243,114.319 67.353,110.708 70.124,114.319 		"/>
		<polygon clip-path="url(#SVGID_2_)" fill="#30AFFF" points="67.353,119.239 62.413,114.319 67.353,110.829 70.032,114.319 		"/>
		<polygon clip-path="url(#SVGID_2_)" fill="#2DA4FF" points="67.353,119.069 62.593,114.319 67.353,110.949 69.933,114.319 		"/>
		<polygon clip-path="url(#SVGID_2_)" fill="#77DC00" points="118.692,87.049 113.253,83.409 118.692,79.779 121.313,83.409 		"/>
		<polygon clip-path="url(#SVGID_2_)" fill="#2799FF" points="67.353,118.899 62.763,114.319 67.353,111.069 69.843,114.319 		"/>
		<polygon clip-path="url(#SVGID_2_)" fill="#087BFF" points="36.554,43.649 34.913,42.199 36.554,37.559 43.813,42.199 		"/>
		<polygon clip-path="url(#SVGID_2_)" fill="#1E8FFF" points="67.353,118.729 62.933,114.319 67.353,111.189 69.753,114.319 		"/>
		<polygon clip-path="url(#SVGID_2_)" fill="#FF2900" points="98.153,115.909 91.343,114.319 98.153,109.329 99.022,114.319 		"/>
		<polygon clip-path="url(#SVGID_2_)" fill="#FFA500" points="46.823,127.589 37.954,124.629 46.823,122.769 48.083,124.629 		"/>
		<polygon clip-path="url(#SVGID_2_)" fill="#0F84FF" points="67.353,118.559 63.103,114.319 67.353,111.319 69.653,114.319 		"/>
		<polygon clip-path="url(#SVGID_2_)" fill="#FE0000" points="77.624,115.259 77.394,114.319 77.112,104.019 77.624,103.499 
			78.884,104.019 79.884,114.319 		"/>
		<polygon clip-path="url(#SVGID_2_)" fill="#FF9A00" points="26.282,127.089 21.362,124.629 26.282,122.349 31.204,124.629 		"/>
		<polygon clip-path="url(#SVGID_2_)" fill="#087BFF" points="67.353,118.379 63.272,114.319 67.353,111.439 69.563,114.319 		"/>
		<polygon clip-path="url(#SVGID_2_)" fill="#1474FF" points="67.353,118.208 63.454,114.319 67.353,111.559 69.474,114.319 		"/>
		<polygon clip-path="url(#SVGID_2_)" fill="#1A6CFF" points="67.353,118.039 63.624,114.319 67.353,111.679 69.384,114.319 		"/>
		<polygon clip-path="url(#SVGID_2_)" fill="#172DFF" points="57.083,14.069 49.454,11.279 57.083,11.279 62.173,11.279 		"/>
		<polygon clip-path="url(#SVGID_2_)" fill="#1D64FF" points="67.353,117.869 63.794,114.319 67.353,111.799 69.282,114.319 		"/>
		<polygon clip-path="url(#SVGID_2_)" fill="#FF2500" points="98.153,115.599 92.663,114.319 98.153,110.299 98.853,114.319 		"/>
		<polygon clip-path="url(#SVGID_2_)" fill="#1F5CFF" points="67.353,117.699 63.964,114.319 67.353,111.919 69.192,114.319 		"/>
		<polygon clip-path="url(#SVGID_2_)" fill="#2054FF" points="67.353,117.529 64.134,114.319 67.353,112.049 69.103,114.319 		"/>
		<polygon clip-path="url(#SVGID_2_)" fill="#70D900" points="118.692,85.849 115.044,83.409 118.692,80.968 120.442,83.409 		"/>
		<polygon clip-path="url(#SVGID_2_)" fill="#204CFF" points="67.353,117.359 64.304,114.319 67.353,112.169 69.003,114.319 		"/>
		<polygon clip-path="url(#SVGID_2_)" fill="#1E42FF" points="67.353,117.189 64.483,114.319 67.353,112.289 68.913,114.319 		"/>
		<polygon clip-path="url(#SVGID_2_)" fill="#2AC400" points="57.083,105.589 55.612,104.019 57.083,94.879 57.593,104.019 		"/>
		<polygon clip-path="url(#SVGID_2_)" fill="#1B39FF" points="67.353,117.009 64.653,114.319 67.353,112.409 68.823,114.319 		"/>
		<polygon clip-path="url(#SVGID_2_)" fill="#F80000" points="77.624,114.879 77.493,114.319 77.532,104.019 77.624,103.929 
			77.843,104.019 78.954,114.319 		"/>
		<polygon clip-path="url(#SVGID_2_)" fill="#FF2000" points="98.153,115.299 93.983,114.319 98.153,111.259 98.683,114.319 		"/>
		<polygon clip-path="url(#SVGID_2_)" fill="#172DFF" points="67.353,116.839 64.823,114.319 67.353,112.529 68.724,114.319 		"/>
		<polygon clip-path="url(#SVGID_2_)" fill="#2A00F7" points="26.282,12.798 19.483,11.279 26.282,11.279 30.173,11.279 		"/>
		<polygon clip-path="url(#SVGID_2_)" fill="#1020FF" points="67.353,116.669 64.993,114.319 67.353,112.649 68.634,114.319 		"/>
		<polygon clip-path="url(#SVGID_2_)" fill="#1474FF" points="36.554,42.929 35.724,42.199 36.554,39.849 40.233,42.199 		"/>
		<polygon clip-path="url(#SVGID_2_)" fill="#040AFF" points="67.353,116.499 65.163,114.319 67.353,112.769 68.544,114.319 		"/>
		<polygon clip-path="url(#SVGID_2_)" fill="#2A00F7" points="67.353,116.329 65.333,114.319 67.353,112.899 68.442,114.319 		"/>
		<polygon clip-path="url(#SVGID_2_)" fill="#FF9A00" points="46.823,125.909 42.974,124.629 46.823,123.819 47.374,124.629 		"/>
		<polygon clip-path="url(#SVGID_2_)" fill="#4100EB" points="67.353,116.159 65.513,114.319 67.353,113.019 68.353,114.319 		"/>
		<polygon clip-path="url(#SVGID_2_)" fill="#FF1A00" points="98.153,114.989 95.304,114.319 98.153,112.229 98.522,114.319 		"/>
		<polygon clip-path="url(#SVGID_2_)" fill="#5000E0" points="67.353,115.989 65.683,114.319 67.353,113.139 68.263,114.319 		"/>
		<polygon clip-path="url(#SVGID_2_)" fill="#5A00D5" points="67.353,115.819 65.853,114.319 67.353,113.259 68.163,114.319 		"/>
		<polygon clip-path="url(#SVGID_2_)" fill="#6300CA" points="67.353,115.649 66.022,114.319 67.353,113.379 68.073,114.319 		"/>
		<polygon clip-path="url(#SVGID_2_)" fill="#19C100" points="57.083,104.729 56.423,104.019 57.083,99.909 57.313,104.019 		"/>
		<polygon clip-path="url(#SVGID_2_)" fill="#6A00BF" points="67.353,115.469 66.192,114.319 67.353,113.499 67.983,114.319 		"/>
		<polygon clip-path="url(#SVGID_2_)" fill="#FF1300" points="98.153,114.679 96.624,114.319 98.153,113.199 98.353,114.319 		"/>
		<polygon clip-path="url(#SVGID_2_)" fill="#7000B4" points="67.353,115.299 66.362,114.319 67.353,113.629 67.884,114.319 		"/>
		<polygon clip-path="url(#SVGID_2_)" fill="#7400A9" points="67.353,115.129 66.544,114.319 67.353,113.749 67.794,114.319 		"/>
		<polygon clip-path="url(#SVGID_2_)" fill="#F30000" points="77.624,114.489 77.583,114.319 77.624,110.659 78.032,114.319 		"/>
		<polygon clip-path="url(#SVGID_2_)" fill="#1020FF" points="57.083,11.779 55.714,11.279 57.083,11.279 57.993,11.279 		"/>
		<polygon clip-path="url(#SVGID_2_)" fill="#78009E" points="67.353,114.958 66.714,114.319 67.353,113.869 67.704,114.319 		"/>
		<polygon clip-path="url(#SVGID_2_)" fill="#FF8F00" points="26.282,124.999 25.542,124.629 26.282,124.279 27.022,124.629 		"/>
		<polygon clip-path="url(#SVGID_2_)" fill="#7B0094" points="67.353,114.789 66.884,114.319 67.353,113.989 67.603,114.319 		"/>
		<polygon clip-path="url(#SVGID_2_)" fill="#7D0089" points="67.353,114.619 67.054,114.319 67.353,114.109 67.513,114.319 		"/>
		<polygon clip-path="url(#SVGID_2_)" fill="#4100EB" points="26.282,11.399 25.743,11.279 26.282,11.279 26.583,11.279 		"/>
		<polygon clip-path="url(#SVGID_2_)" fill="#FF0900" points="98.153,114.369 97.942,114.319 98.153,114.169 98.183,114.319 		"/>
		<polygon clip-path="url(#SVGID_2_)" fill="#7F007F" points="67.353,114.449 67.224,114.319 67.353,114.229 67.423,114.319 		"/>
		<polygon clip-path="url(#SVGID_2_)" fill="#1A6CFF" points="36.554,42.208 36.522,42.199 36.554,42.128 36.644,42.199 		"/>
	</g>
	<path d="M33.303,54.575c0.891,0,1.492,0.464,1.807,1.391l3.668,11.002l3.793-11.346c0.096-0.313,0.289-0.566,0.578-0.759
		c0.289-0.192,0.662-0.289,1.121-0.289c0.264,0,0.512,0.048,0.74,0.145c0.229,0.097,0.428,0.232,0.596,0.406
		c0.168,0.175,0.305,0.377,0.406,0.605c0.102,0.229,0.154,0.47,0.154,0.723c0,0.229-0.049,0.47-0.145,0.723l-5.475,16.422
		c-0.107,0.35-0.307,0.639-0.596,0.867c-0.289,0.229-0.682,0.343-1.174,0.343c-0.422,0-0.795-0.12-1.121-0.361
		c-0.324-0.241-0.535-0.524-0.633-0.849l-3.721-11.165L29.58,73.599c-0.107,0.35-0.324,0.639-0.65,0.867
		c-0.324,0.229-0.697,0.343-1.119,0.343s-0.793-0.114-1.111-0.343c-0.32-0.229-0.539-0.518-0.66-0.867l-5.473-16.422
		c-0.086-0.265-0.127-0.506-0.127-0.723c0-0.253,0.047-0.494,0.145-0.723c0.096-0.229,0.229-0.431,0.396-0.605
		c0.17-0.174,0.367-0.31,0.598-0.406c0.229-0.096,0.475-0.145,0.74-0.145c0.434,0,0.797,0.103,1.092,0.307
		c0.295,0.205,0.498,0.452,0.605,0.741l3.795,11.328l3.668-10.984C31.791,55.039,32.398,54.575,33.303,54.575z"/>
	<path d="M54.387,50.979c0,0.614-0.217,1.138-0.65,1.572s-0.959,0.65-1.572,0.65c-0.615,0-1.139-0.217-1.572-0.65
		s-0.65-0.958-0.65-1.572s0.217-1.138,0.65-1.572s0.957-0.65,1.572-0.65c0.613,0,1.139,0.217,1.572,0.65
		S54.387,50.365,54.387,50.979z M50.285,72.912v-16.44c0-0.53,0.184-0.979,0.551-1.346c0.367-0.367,0.811-0.551,1.328-0.551
		s0.959,0.184,1.328,0.551c0.367,0.368,0.557,0.816,0.568,1.346v16.44c-0.012,0.53-0.201,0.979-0.568,1.346
		c-0.369,0.367-0.811,0.551-1.328,0.551s-0.961-0.184-1.328-0.551C50.469,73.891,50.285,73.442,50.285,72.912z"/>
	<path d="M78.18,64.692c0,2.818-0.988,5.203-2.963,7.154c-2,1.976-4.385,2.963-7.154,2.963c-2.795,0-5.18-0.987-7.154-2.963
		c-1.977-1.975-2.963-4.36-2.963-7.154c0-2.794,0.986-5.179,2.963-7.154c1.975-1.975,4.359-2.963,7.154-2.963
		c2.77,0,5.154,0.988,7.154,2.963c0.986,0.988,1.725,2.078,2.213,3.27S78.168,63.295,78.18,64.692z M68.063,58.351
		c-0.893,0-1.723,0.169-2.494,0.506c-0.77,0.337-1.439,0.792-2.004,1.364c-0.566,0.572-1.016,1.244-1.348,2.015
		c-0.33,0.771-0.496,1.59-0.496,2.457s0.166,1.687,0.496,2.457c0.332,0.771,0.781,1.442,1.348,2.015
		c0.564,0.572,1.234,1.027,2.004,1.364c0.771,0.337,1.602,0.506,2.494,0.506c0.879,0,1.703-0.168,2.475-0.506
		c0.771-0.337,1.441-0.795,2.014-1.373s1.023-1.25,1.355-2.014c0.332-0.765,0.498-1.581,0.498-2.448s-0.166-1.683-0.498-2.448
		c-0.332-0.765-0.783-1.436-1.355-2.014s-1.242-1.036-2.014-1.373C69.766,58.52,68.941,58.351,68.063,58.351z"/>
	<path d="M84.773,56.454v0.361c0.904-0.723,1.885-1.276,2.945-1.662c1.059-0.385,2.191-0.578,3.396-0.578
		c0.529,0,1.098,0.036,1.707,0.108c0.607,0.072,1.168,0.202,1.68,0.389c0.512,0.187,0.938,0.442,1.273,0.768
		c0.338,0.325,0.506,0.747,0.506,1.265c0,0.265-0.051,0.512-0.152,0.741c-0.104,0.229-0.238,0.431-0.406,0.605
		c-0.17,0.175-0.369,0.311-0.598,0.407c-0.229,0.097-0.475,0.145-0.74,0.145c-0.229,0-0.494-0.066-0.795-0.199
		c-0.758-0.301-1.584-0.452-2.475-0.452c-0.879,0-1.705,0.166-2.475,0.497c-0.771,0.332-1.443,0.783-2.016,1.355
		c-0.572,0.572-1.023,1.244-1.355,2.014c-0.33,0.771-0.496,1.596-0.496,2.475v8.238c0,0.518-0.184,0.96-0.551,1.328
		c-0.367,0.367-0.811,0.551-1.328,0.551c-0.529,0-0.979-0.184-1.346-0.551c-0.367-0.368-0.551-0.81-0.551-1.328V56.454
		c0-0.518,0.184-0.96,0.551-1.328c0.367-0.367,0.816-0.551,1.346-0.551c0.518,0,0.961,0.184,1.328,0.551
		C84.59,55.493,84.773,55.936,84.773,56.454z"/>
</g>
</svg>
